<?xml version="1.0" encoding="utf-8"?>
<!-- Generator: Adobe Illustrator 23.0.0, SVG Export Plug-In . SVG Version: 6.00 Build 0)  -->
<svg version="1.1" id="Layer_1" xmlns="http://www.w3.org/2000/svg" xmlns:xlink="http://www.w3.org/1999/xlink" x="0px" y="0px"
	 viewBox="0 0 52.9 16.1" style="enable-background:new 0 0 52.9 16.1;" xml:space="preserve">
<style type="text/css">
	.st0{display:none;}
	.st1{fill:#12A04A;}
	.st2{fill:#ED1F24;}
	.st3{stroke:#000000;stroke-width:0.1;}
	.st4{fill:#FFFFFF;}
	.st5{fill:#FFFFFF;stroke:#FFFFFF;stroke-width:0.25;stroke-linecap:round;stroke-linejoin:round;}
</style>
<rect class="st0" width="52.9" height="16.1"/>
<g>
	<path class="st2" d="M21.1,0.2C21.1,0.1,21.1,0.1,21.1,0.2c0-0.1,0-0.2,0-0.2C21.1,0.1,21.1,0.1,21.1,0.2"/>
	<g>
		<path d="M17.7,10.7V5.6c0-0.1,0-0.2,0-0.2l1.7,0c1,0,1.7,0.6,1.7,1.5c0,1-0.8,1.6-2.1,1.6h-0.5v2.2c0,0.1,0,0.2,0,0.2h-0.9
			C17.7,10.9,17.7,10.8,17.7,10.7z M18.5,8.2h0.4c0.3,0,0.6-0.1,0.7-0.1c0.4-0.2,0.6-0.6,0.6-1.1c0-0.5-0.2-0.9-0.6-1
			c-0.2-0.1-0.4-0.1-0.7-0.1h-0.5C18.5,5.8,18.5,8.2,18.5,8.2z"/>
		<path d="M21.6,10.7V6.9c0-0.1,0-0.2,0-0.2l0.7,0v0.6c0.2-0.5,0.5-0.7,1.1-0.7v0.6c-0.1,0-0.1,0-0.1,0c-0.6,0-0.9,0.4-0.9,1v2.6
			c0,0.1,0,0.2,0,0.2h-0.8C21.6,10.9,21.6,10.8,21.6,10.7z"/>
		<path d="M25.5,6.6c1.2,0,2,0.9,2,2.3c0,1.3-0.8,2.2-2,2.2c-1.2,0-1.9-0.9-1.9-2.2C23.5,7.4,24.3,6.6,25.5,6.6z M24.3,8.8
			c0,1.2,0.5,1.9,1.2,1.9c0.7,0,1.1-0.8,1.1-1.9c0-1.2-0.4-1.9-1.2-1.9C24.8,6.9,24.3,7.6,24.3,8.8z"/>
		<path d="M31.1,7.3c-0.1-0.1-0.1-0.1-0.2-0.2c-0.2-0.1-0.5-0.3-0.8-0.3c-0.8,0-1.3,0.7-1.3,1.9c0,1.1,0.5,1.8,1.2,1.8
			c0.2,0,0.4-0.1,0.6-0.1c0.2-0.1,0.3-0.1,0.4-0.3v0.6C30.6,11,30.4,11,29.9,11c-1.2,0-1.9-0.8-1.9-2.2s0.8-2.3,2-2.3
			c0.4,0,0.6,0.1,1,0.2L31.1,7.3L31.1,7.3z"/>
		<path d="M32.5,3.2c0,0.1,0,0.2,0,0.3v7.1c0,0.2,0,0.2,0,0.3h-0.8c0-0.1,0-0.1,0-0.3V3.6c0-0.2,0-0.2,0-0.3H32.5z"/>
		<path d="M33.6,6.9c0.1-0.1,0.2-0.1,0.3-0.1c0.4-0.2,0.8-0.3,1.2-0.3c0.5,0,1,0.2,1.2,0.5c0.1,0.1,0.1,0.3,0.1,0.6V10
			c0,0.4,0.1,0.5,0.2,0.5c0.1,0,0.2-0.1,0.3-0.1v0.4c-0.2,0.1-0.4,0.2-0.6,0.2c-0.3,0-0.7-0.3-0.7-0.6c0,0,0-0.1,0-0.1
			c-0.1,0.1-0.2,0.2-0.2,0.3c-0.3,0.3-0.7,0.4-1.1,0.4c-0.7,0-1.2-0.5-1.2-1.2c0-0.7,0.4-1.1,1.2-1.4l0.7-0.2
			c0.4-0.1,0.6-0.3,0.6-0.6c0-0.4-0.3-0.6-0.8-0.6c-0.2,0-0.5,0.1-0.7,0.2C34,7.2,34,7.2,33.7,7.4L33.6,6.9z M35.6,8.3
			c-0.1,0.1-0.2,0.1-0.2,0.1c-0.1,0.1-0.3,0.1-0.7,0.3c-0.6,0.2-0.8,0.5-0.8,1c0,0.5,0.3,0.8,0.8,0.8c0.6,0,1-0.5,1-1.1V8.3z"/>
		<path d="M37.2,10.1c0.2,0.2,0.3,0.3,0.5,0.4c0.2,0.1,0.5,0.1,0.7,0.1c0.5,0,0.9-0.3,0.9-0.8c0-0.4-0.2-0.6-1-0.9
			c-0.2-0.1-0.4-0.2-0.6-0.3c-0.3-0.2-0.5-0.5-0.5-0.9c0-0.7,0.6-1.2,1.5-1.2c0.4,0,0.8,0.1,1.3,0.3l-0.1,0.5
			c-0.2-0.2-0.3-0.2-0.4-0.3c-0.2-0.1-0.4-0.1-0.6-0.1c-0.5,0-0.8,0.3-0.8,0.7c0,0.1,0,0.2,0.1,0.3c0.1,0.2,0.3,0.3,0.8,0.5
			C39.7,8.7,40,9.1,40,9.7c0,0.8-0.6,1.4-1.6,1.4c-0.3,0-0.5-0.1-0.8-0.1c-0.2-0.1-0.3-0.1-0.6-0.3L37.2,10.1z"/>
		<path d="M40.5,10.1c0.2,0.2,0.3,0.3,0.5,0.4c0.2,0.1,0.5,0.1,0.7,0.1c0.5,0,0.9-0.3,0.9-0.8c0-0.4-0.2-0.6-1-0.9
			c-0.2-0.1-0.5-0.2-0.6-0.3c-0.3-0.2-0.4-0.5-0.4-0.9c0-0.7,0.6-1.2,1.5-1.2c0.4,0,0.8,0.1,1.3,0.3l-0.1,0.5
			c-0.2-0.2-0.3-0.2-0.4-0.3c-0.2-0.1-0.4-0.1-0.6-0.1c-0.5,0-0.8,0.3-0.8,0.7c0,0.1,0,0.2,0.1,0.3c0.1,0.2,0.3,0.3,0.8,0.5
			c0.9,0.4,1.2,0.7,1.2,1.3c0,0.8-0.6,1.4-1.6,1.4c-0.3,0-0.5-0.1-0.8-0.1c-0.2-0.1-0.3-0.1-0.6-0.3L40.5,10.1z"/>
		<path d="M44.5,5.5c0.3,0,0.4,0.1,0.4,0.4c0,0.2-0.2,0.3-0.5,0.3c-0.3,0-0.4-0.1-0.4-0.3C44,5.6,44.2,5.5,44.5,5.5z M44.9,6.6
			c0,0.1,0,0.1,0,0.2v3.8c0,0.1,0,0.2,0,0.2h-0.8c0-0.1,0-0.1,0-0.2V6.9c0-0.1,0-0.2,0-0.2H44.9z"/>
		<path d="M48.7,7.3c-0.1-0.1-0.1-0.1-0.2-0.2C48.3,7,48,6.9,47.7,6.9c-0.8,0-1.3,0.7-1.3,1.9c0,1.1,0.5,1.8,1.2,1.8
			c0.2,0,0.4-0.1,0.6-0.1c0.2-0.1,0.3-0.1,0.4-0.3v0.6C48.3,11,48,11,47.5,11c-1.2,0-1.9-0.8-1.9-2.2s0.8-2.3,2-2.3
			c0.4,0,0.7,0.1,1,0.2L48.7,7.3L48.7,7.3z"/>
	</g>
	<g>
		<path class="st3" d="M42.1,12.6c0,0,0.1,0,0.1,0s0.1,0,0.1,0l0,0.1c0,0,0,0,0,0c0,0,0,0,0,0c0,0,0,0.1,0,0.2c0,0.1,0,0.2,0,0.2
			s0,0.2,0,0.2s0,0.1,0,0.2c0,0,0,0-0.1,0c0,0,0,0-0.1,0c0,0,0,0,0,0s0,0,0,0c-0.1,0-0.1,0-0.2,0.1c-0.1,0-0.1,0-0.2,0
			c-0.1,0-0.3,0-0.4-0.1c-0.1,0-0.2-0.1-0.3-0.2c-0.1-0.1-0.2-0.2-0.2-0.3c0-0.1-0.1-0.2-0.1-0.3c0-0.1,0-0.3,0.1-0.4
			c0-0.1,0.1-0.2,0.2-0.2c0.1-0.1,0.1-0.1,0.2-0.1c0.1,0,0.2-0.1,0.2-0.1c0.1,0,0.1,0,0.2,0c0.1,0,0.1,0,0.1,0c0.1,0,0.2,0,0.3,0
			c0.1,0,0.2,0.1,0.2,0.1L42.1,12C42.1,12,42,11.9,42,11.9c-0.1,0-0.2-0.1-0.3-0.1c-0.1,0-0.2,0-0.3,0c-0.1,0-0.2,0.1-0.2,0.1
			S41,12.1,41,12.2c0,0.1-0.1,0.2-0.1,0.4c0,0.1,0,0.3,0.1,0.4c0,0.1,0.1,0.2,0.2,0.3c0.1,0.1,0.2,0.1,0.3,0.2
			c0.1,0,0.2,0.1,0.3,0.1c0.1,0,0.2,0,0.2,0c0.1,0,0.1,0,0.2-0.1c0-0.1,0-0.1,0-0.2c0-0.1,0-0.1,0-0.2c0-0.1,0-0.2,0-0.2
			S42.1,12.6,42.1,12.6c-0.1,0-0.1,0-0.2,0c-0.1,0-0.1,0-0.2,0l0-0.1C41.9,12.6,42,12.6,42.1,12.6z"/>
		<path class="st3" d="M43,12.6C43.1,12.6,43.1,12.6,43,12.6c0.1,0,0.1,0,0.1,0c0.1,0,0.2,0,0.2,0c0,0,0.1-0.1,0.1-0.1
			s0.1-0.1,0.1-0.1c0,0,0-0.1,0-0.1c0-0.1,0-0.2-0.1-0.3s-0.2-0.1-0.3-0.1c0,0-0.1,0-0.1,0s-0.1,0-0.1,0c0,0.1,0,0.1,0,0.2
			s0,0.1,0,0.2s0,0.1,0,0.2s0,0.1,0,0.2c0,0.1,0,0.1,0,0.2c0,0.1,0,0.1,0,0.2s0,0.1,0,0.2c0,0.1,0,0.1,0,0.1h-0.2c0,0,0-0.1,0-0.1
			c0-0.1,0-0.1,0-0.2c0-0.1,0-0.1,0-0.2s0-0.1,0-0.2s0-0.2,0-0.2s0-0.2,0-0.2c0-0.1,0-0.1,0-0.2c0-0.1,0-0.1,0-0.2
			c0.1,0,0.1,0,0.2,0c0.1,0,0.1,0,0.2,0c0.1,0,0.2,0,0.3,0c0.1,0,0.2,0.1,0.2,0.1c0.1,0,0.1,0.1,0.1,0.1c0,0.1,0,0.1,0,0.2
			c0,0.1,0,0.2-0.1,0.3s-0.2,0.1-0.3,0.1c0.1,0,0.2,0.1,0.3,0.1s0.2,0.1,0.2,0.2c0.1,0.1,0.1,0.2,0.1,0.3c0,0.1,0.1,0.2,0.1,0.2
			l-0.2,0c0-0.1,0-0.2-0.1-0.3s-0.1-0.2-0.1-0.3c0-0.1-0.1-0.1-0.2-0.2c-0.1-0.1-0.1-0.1-0.2-0.1C43.2,12.6,43.2,12.6,43,12.6
			C43.1,12.6,43.1,12.6,43,12.6L43,12.6z"/>
		<path class="st3" d="M45.9,12.7c0,0.1,0,0.3-0.1,0.4c-0.1,0.1-0.1,0.2-0.2,0.3c-0.1,0.1-0.2,0.1-0.3,0.1s-0.2,0.1-0.3,0.1
			c-0.1,0-0.2,0-0.3-0.1c-0.1,0-0.2-0.1-0.3-0.2c-0.1-0.1-0.2-0.2-0.2-0.3c0-0.1-0.1-0.2-0.1-0.4c0-0.1,0-0.2,0-0.3s0.1-0.2,0.1-0.2
			c0-0.1,0.1-0.1,0.2-0.2s0.1-0.1,0.2-0.1s0.1-0.1,0.2-0.1c0.1,0,0.1,0,0.2,0c0.1,0,0.2,0,0.3,0.1c0.1,0,0.2,0.1,0.3,0.2
			c0.1,0.1,0.2,0.2,0.2,0.3C45.9,12.4,45.9,12.5,45.9,12.7z M44.3,12.6c0,0.1,0,0.2,0,0.3c0,0.1,0.1,0.2,0.1,0.3
			c0.1,0.1,0.1,0.1,0.2,0.2c0.1,0.1,0.2,0.1,0.3,0.1c0.1,0,0.2,0,0.3-0.1c0.1,0,0.2-0.1,0.2-0.2c0.1-0.1,0.1-0.1,0.1-0.2
			c0-0.1,0-0.2,0-0.3c0-0.1,0-0.2,0-0.3c0-0.1-0.1-0.2-0.1-0.3c-0.1-0.1-0.1-0.1-0.2-0.2c-0.1-0.1-0.2-0.1-0.3-0.1
			c-0.1,0-0.2,0-0.3,0.1c-0.1,0-0.2,0.1-0.2,0.2c-0.1,0.1-0.1,0.1-0.1,0.3C44.3,12.4,44.3,12.5,44.3,12.6z"/>
		<path class="st3" d="M47.5,11.9c0,0,0,0.1,0,0.2s0,0.2,0,0.3c0,0.1,0,0.2,0,0.3c0,0.1,0,0.2,0,0.3c0,0.1,0,0.2,0,0.3
			c0,0.1-0.1,0.1-0.1,0.2c-0.1,0.1-0.1,0.1-0.2,0.1c-0.1,0-0.2,0-0.3,0c-0.1,0-0.2,0-0.3,0c-0.1,0-0.2-0.1-0.2-0.1
			c-0.1-0.1-0.1-0.1-0.2-0.2s-0.1-0.2-0.1-0.3c0-0.1,0-0.2,0-0.3c0-0.1,0-0.2,0-0.3c0-0.1,0-0.2,0-0.2s0-0.1,0-0.2h0.2
			c0,0.2,0,0.3,0,0.5s0,0.3,0,0.5c0,0.1,0,0.2,0,0.2c0,0.1,0.1,0.1,0.1,0.2c0,0.1,0.1,0.1,0.2,0.1s0.2,0.1,0.3,0.1
			c0.1,0,0.2,0,0.2,0s0.1-0.1,0.2-0.1c0-0.1,0.1-0.1,0.1-0.2c0-0.1,0-0.1,0-0.2v-0.3c0-0.1,0-0.1,0-0.2s0-0.1,0-0.2
			c0-0.1,0-0.1,0-0.2C47.5,12,47.5,11.9,47.5,11.9L47.5,11.9L47.5,11.9z"/>
		<path class="st3" d="M48.2,12.7c0.1,0,0.1,0,0.2,0c0.1,0,0.1,0,0.2,0c0.1,0,0.1,0,0.1-0.1c0,0,0.1-0.1,0.1-0.1c0-0.1,0-0.1,0-0.2
			c0-0.1,0-0.1,0-0.2c0-0.1-0.1-0.1-0.1-0.1c0,0-0.1-0.1-0.2-0.1c-0.1,0-0.1,0-0.2,0c0,0-0.1,0-0.1,0s-0.1,0-0.1,0
			c0,0.1,0,0.1,0,0.2c0,0.1,0,0.1,0,0.2s0,0.1,0,0.2c0,0.1,0,0.2,0,0.2c0,0.1,0,0.1,0,0.2s0,0.1,0,0.2s0,0.1,0,0.2c0,0,0,0.1,0,0.1
			h-0.2c0,0,0-0.1,0-0.1c0-0.1,0-0.1,0-0.2c0-0.1,0-0.1,0-0.2c0-0.1,0-0.1,0-0.2s0-0.1,0-0.2s0-0.1,0-0.2c0-0.1,0-0.1,0-0.2
			c0-0.1,0-0.1,0-0.2c0.2,0,0.3,0,0.4,0c0.2,0,0.4,0,0.5,0.1c0.1,0.1,0.2,0.2,0.2,0.4c0,0.1,0,0.1-0.1,0.2c0,0.1-0.1,0.1-0.2,0.1
			c-0.1,0-0.1,0.1-0.2,0.1c-0.1,0-0.2,0-0.2,0C48.3,12.8,48.2,12.8,48.2,12.7C48.2,12.8,48.2,12.8,48.2,12.7L48.2,12.7z"/>
	</g>
	<g>
		<path class="st2" d="M16.1,0.7C16.1,0.7,16.1,0.7,16.1,0.7c-0.1,0-0.1,0-0.1,0h-0.1C16,0.7,16,0.7,16.1,0.7"/>
		<path class="st2" d="M15.9,0.7H16c-0.2,0-0.4,0-0.8,0c0.1,0,0.3,0,0.4,0C15.7,0.7,15.8,0.7,15.9,0.7"/>
		<path class="st2" d="M13.1,0.8l-0.4,0c0,0,0.1,0,0.1,0C12.9,0.8,13,0.8,13.1,0.8"/>
		<path class="st2" d="M12.7,0.9c0.1,0,0.1,0,0.2,0c0.1,0,0.1,0,0.2,0c0.1,0,0.1,0,0.2,0c0.1,0,0.1,0,0.2,0c0.1,0,0.1,0,0.2,0
			s0.1,0,0.2,0c0.1,0,0.2,0,0.3,0c0.3,0,0.6,0,0.8,0C14.1,0.8,13.4,0.9,12.7,0.9"/>
		<path class="st2" d="M15.5,15.4C15.5,15.4,15.6,15.4,15.5,15.4C15.5,15.4,15.5,15.4,15.5,15.4C15.5,15.4,15.5,15.4,15.5,15.4"/>
		<path class="st2" d="M15.6,15.4l-1.2-0.1c0.3,0,0.5,0,0.9,0c0,0,0.1,0,0.1,0s0.1,0,0.1,0C15.5,15.4,15.6,15.4,15.6,15.4"/>
		<path class="st2" d="M14.5,15.2C14.5,15.2,14.5,15.2,14.5,15.2c-0.1,0-0.2-0.1-0.2-0.1c0,0,0.1,0,0.1,0
			C14.5,15.2,14.5,15.2,14.5,15.2"/>
		<path class="st2" d="M14.2,15.1c0,0,0.1,0,0.1,0C14.2,15.1,14.2,15.1,14.2,15.1"/>
		<path class="st2" d="M14,15c0.1,0,0.1,0,0.2,0.1C14.1,15,14.1,15,14,15"/>
		<path class="st2" d="M12.9,14.5c0.1,0,0.1,0.1,0.2,0.1C13,14.5,13,14.5,12.9,14.5"/>
		<path class="st2" d="M12.6,15.2c-0.1-0.1,0.3-0.2,1.3-0.2c0,0,0.1,0,0.1,0c0.1,0,0.1,0,0.2,0.1c0,0,0.1,0,0.1,0c0,0,0,0,0,0
			c0,0,0.1,0,0.1,0c0,0,0.1,0,0.1,0c0.1,0,0.1,0,0.1,0c0.1,0,0.2,0,0.3,0.1c-0.6,0-1.2,0.1-1.8,0c-0.1,0-0.1,0-0.1,0
			c-0.1,0-0.1,0-0.1,0c-0.1,0-0.1,0-0.1,0C12.7,15.2,12.6,15.2,12.6,15.2"/>
		<path class="st2" d="M12.8,1.8c-0.1,0-0.1,0.1-0.2,0.1C12.7,1.8,12.8,1.8,12.8,1.8"/>
		<path class="st2" d="M12.1,15.1c-0.1,0-0.1,0-0.2-0.1c-0.1,0-0.1-0.1-0.2-0.1c-0.1,0-0.1-0.1-0.2-0.1s-0.1-0.1-0.2-0.1
			c-0.1-0.2,0.4-0.4,1.4-0.5c0.1,0.1,0.1,0.1,0.2,0.1c0,0,0,0,0,0c0.1,0,0.1,0.1,0.2,0.1c0,0,0,0,0,0c0.1,0,0.1,0.1,0.2,0.1
			s0.2,0.1,0.2,0.1C12.4,14.9,12.1,15,12.1,15.1"/>
		<path class="st2" d="M12.1,13.9C12.1,13.9,12.1,13.9,12.1,13.9C12.1,13.9,12.1,13.9,12.1,13.9"/>
		<path class="st2" d="M11.7,13.6C11.8,13.6,11.8,13.6,11.7,13.6c0,0-0.1-0.1-0.1-0.1C11.6,13.5,11.7,13.5,11.7,13.6"/>
		<path class="st2" d="M11.3,1.4c0.1,0,0.1-0.1,0.2-0.1c0.1,0,0.1,0,0.2-0.1c0.1,0,0.1,0,0.2-0.1c0.1,0,0.1,0,0.2-0.1
			c1.1-0.2,2.5-0.3,3.6-0.3c0,0-0.1,0-0.1,0c0,0-0.1,0-0.1,0c0,0-0.1,0-0.1,0s-0.1,0-0.1,0c0,0-0.1,0-0.1,0c0,0-0.1,0-0.1,0
			c-0.1,0-0.2,0-0.3,0.1C13.3,1,12.2,1.2,11.3,1.4"/>
		<path class="st2" d="M11.6,13.4C11.6,13.4,11.6,13.4,11.6,13.4c0.1,0.1,0.2,0.2,0.3,0.3c0,0,0.1,0.1,0.1,0.1
			c0.1,0,0.1,0.1,0.1,0.1c0,0,0,0,0,0c0,0,0,0,0,0c0,0,0.1,0,0.1,0.1c0.1,0,0.1,0.1,0.1,0.1c-1.2,0.1-1.5,0.3-1.6,0.4
			c-0.1,0-0.1-0.1-0.2-0.1c-0.1,0-0.1-0.1-0.2-0.1c-0.1,0-0.1-0.1-0.2-0.1c-0.1,0-0.1-0.1-0.2-0.1C10,13.8,10.4,13.5,11.6,13.4
			C11.5,13.4,11.5,13.4,11.6,13.4"/>
		<path class="st2" d="M10.9,3.5c0,0-0.1,0.1-0.1,0.1c0,0,0,0.1,0,0.1c0,0,0,0,0,0c-0.1,0.1-0.1,0.2-0.1,0.2l0,0
			c-0.1,0.1-0.1,0.2-0.1,0.2c0,0,0,0,0,0.1c0,0.1-0.1,0.1-0.1,0.2C9.1,4.6,8.1,5,7.4,5.5c0-0.1,0.1-0.1,0.1-0.2
			c0-0.1,0.1-0.1,0.1-0.2c0-0.1,0.1-0.1,0.1-0.2c0-0.1,0.1-0.1,0.1-0.2C8.5,4.1,9.6,3.7,10.9,3.5"/>
		<path class="st2" d="M10.8,1.6c0.9-0.3,2.1-0.4,3.6-0.6c-0.1,0-0.2,0.1-0.3,0.1c-0.1,0-0.2,0.1-0.2,0.1c-0.1,0-0.2,0.1-0.2,0.1
			l0,0c0,0,0,0,0,0c-0.1,0-0.1,0.1-0.2,0.1C12.1,1.6,11,1.8,10,2.1c0.1,0,0.1-0.1,0.2-0.1c0.1,0,0.1-0.1,0.2-0.1
			c0.1,0,0.1-0.1,0.2-0.1C10.7,1.7,10.7,1.6,10.8,1.6"/>
		<path class="st2" d="M10.1,4.8C10.1,4.8,10.1,4.9,10.1,4.8C10.1,4.9,10.1,4.9,10,5C10,5,10,5,10,5.1s0,0.1-0.1,0.1c0,0,0,0,0,0
			c0,0,0,0.1-0.1,0.1s0,0.1-0.1,0.1s0,0.1-0.1,0.1c0,0.1,0,0.2-0.1,0.3C8.6,6,7.6,6.4,7,6.9c0-0.1,0-0.1,0-0.2c0-0.1,0-0.2,0.1-0.2
			c0-0.1,0-0.2,0.1-0.2s0-0.1,0.1-0.2C7.7,5.6,8.7,5,10.1,4.8"/>
		<path class="st2" d="M9.8,10.5c0-0.1,0-0.1-0.1-0.2C9.7,10.4,9.7,10.5,9.8,10.5C9.8,10.5,9.8,10.5,9.8,10.5"/>
		<path class="st2" d="M9.6,2.4c0.8-0.3,2.1-0.6,3.4-0.8c-0.1,0-0.1,0.1-0.2,0.1s-0.1,0.1-0.2,0.1c-0.1,0-0.1,0.1-0.2,0.2
			c-0.1,0-0.1,0.1-0.2,0.2C10.9,2.4,9.9,2.6,8.9,3C9,2.9,9.1,2.9,9.1,2.8c0.1,0,0.1-0.1,0.2-0.2c0.1,0,0.1-0.1,0.2-0.2
			C9.5,2.5,9.5,2.4,9.6,2.4"/>
		<path class="st2" d="M9.4,7.2C9.4,7.2,9.4,7.2,9.4,7.2C9.4,7.2,9.4,7.2,9.4,7.2C9.4,7.3,9.4,7.2,9.4,7.2"/>
		<path class="st2" d="M9.4,8.6c0,0,0,0.1,0,0.1C9.4,8.6,9.4,8.6,9.4,8.6"/>
		<path class="st2" d="M9.4,8.4c0,0,0,0.1,0,0.1C9.4,8.5,9.4,8.5,9.4,8.4C9.4,8.4,9.4,8.4,9.4,8.4"/>
		<path class="st2" d="M7.1,9.8c0-0.1,0-0.2-0.1-0.2c0-0.1,0-0.1,0-0.2c0-0.1,0-0.2,0-0.2C7.2,8.6,8.1,8,9.4,7.8c0,0,0,0,0,0.1V8V8
			v0.1c0,0.1,0,0.1,0,0.2c0,0,0,0,0,0.1c0,0,0,0.1,0,0.1c0,0,0,0,0,0c0,0,0,0,0,0.1c0,0,0,0.1,0,0.1c0,0,0,0.1,0,0.1v0
			c0,0,0,0.1,0,0.1c0,0,0,0.1,0,0.1c-1,0.2-1.8,0.5-2.3,1.1C7.1,10,7.1,9.9,7.1,9.8"/>
		<path class="st2" d="M11.8,2.5c0,0-0.1,0.1-0.1,0.1c0,0,0,0,0,0c-0.1,0-0.1,0.1-0.2,0.2c0,0-0.1,0-0.1,0.1c0,0,0,0,0,0
			c0,0-0.1,0.1-0.1,0.1c0,0-0.1,0.1-0.1,0.1c0,0,0,0-0.1,0.1C9.9,3.4,8.9,3.7,8,4.1C8.1,4.1,8.1,4,8.2,3.9s0.1-0.1,0.1-0.2
			c0.1-0.1,0.1-0.1,0.1-0.2c0-0.1,0.1-0.1,0.1-0.2C9.4,3,10.6,2.6,11.8,2.5C11.9,2.5,11.8,2.5,11.8,2.5"/>
		<path class="st2" d="M9.3,1c0.7,0,1.4-0.1,2.1-0.1c0,0,0,0,0,0c-0.1,0-0.1,0-0.2,0S11,1,10.9,1s-0.1,0-0.2,0c-0.1,0-0.1,0-0.2,0
			C10.4,1,10.1,1,9.3,1C9.2,1,9.2,1,9.3,1C9.2,1,9.2,1,9.3,1C9.3,1,9.3,1,9.3,1"/>
		<path class="st2" d="M8.7,15.1L8.7,15.1C8.6,15.1,8.6,15.1,8.7,15.1C8.6,15.1,8.7,15.1,8.7,15.1"/>
		<path class="st2" d="M8.4,15.1c0.4,0,0.8,0.1,1.2,0.1c-0.3,0-0.7,0-0.9,0c0,0-0.1,0-0.1,0c0,0,0,0-0.1,0
			C8.5,15.1,8.5,15.1,8.4,15.1"/>
		<path class="st2" d="M9.1,1.5C9,1.3,8.6,1.2,7.7,1.2c0.1,0,0.2,0,0.3-0.1c0.1,0,0.2,0,0.3-0.1c0.1,0,0.2,0,0.3,0c0,0,0,0,0.1,0
			l0.1,0c0,0,0.1,0,0.1,0l0,0h0C9.6,1,10,1,10,1.2c-0.1,0-0.1,0-0.2,0.1c-0.1,0-0.1,0-0.2,0.1c-0.1,0-0.1,0.1-0.2,0.1
			C9.2,1.4,9.2,1.4,9.1,1.5"/>
		<path class="st2" d="M8.4,15.1c0,0,0.1,0,0.1,0C8.5,15.1,8.5,15.1,8.4,15.1C8.5,15.1,8.5,15.1,8.4,15.1"/>
		<path class="st2" d="M8,15L8,15C8,15,8,15,8,15C8,15,8,15,8,15"/>
		<path class="st2" d="M7.8,2.2C7.7,1.9,7.2,1.8,6.4,1.7c0.1,0,0.1,0,0.2-0.1c0,0,0.1,0,0.1,0c0.1,0,0.2-0.1,0.2-0.1
			c0,0,0.1,0,0.1,0c0,0,0.1,0,0.1,0c0,0,0,0,0,0c0.1,0,0.2-0.1,0.3-0.1h0c0.6,0,1.3,0,1.2,0.4c-0.1,0-0.1,0.1-0.2,0.1
			c-0.1,0-0.1,0.1-0.2,0.1C8.2,2,8.1,2,8,2C8,2.1,7.9,2.1,7.8,2.2"/>
		<path class="st2" d="M9.4,7.4C9,7.5,7.8,7.7,6.9,8.5c0,0,0-0.1,0-0.1c0,0,0-0.1,0-0.1s0-0.1,0-0.1s0-0.1,0-0.1c0-0.1,0-0.1,0-0.1
			c0,0,0-0.1,0-0.1s0-0.1,0-0.1c0,0,0-0.1,0-0.1c0.4-0.5,1.3-1.1,2.7-1.3c0,0.1,0,0.2-0.1,0.3c0,0,0,0,0,0.1c0,0.1,0,0.1,0,0.2
			c0,0,0,0,0,0c0,0.1,0,0.2,0,0.3c0,0,0,0,0,0c0,0,0,0.1,0,0.1c0,0,0,0,0,0C9.4,7.3,9.4,7.3,9.4,7.4C9.4,7.3,9.4,7.4,9.4,7.4"/>
		<path class="st2" d="M7.1,14.7c0.7,0.1,0.7,0.1,3.4,0.4c0,0,0.1,0,0.1,0c0.1,0,0.1,0,0.1,0c0.1,0,0.1,0,0.1,0c0.1,0,0.1,0,0.1,0
			l-0.5,0C9.7,15.1,8.9,15.1,8,15c0,0-0.1,0-0.1,0c-0.1,0-0.1,0-0.2,0c-0.1,0-0.2,0-0.3-0.1s-0.2-0.1-0.3-0.1S7.1,14.7,7.1,14.7
			C7,14.7,7,14.7,7.1,14.7"/>
		<path class="st2" d="M7.1,1.4c0,0-0.1,0-0.1,0.1C7,1.5,7,1.5,7.1,1.4"/>
		<path class="st2" d="M6.7,3.1C6.5,2.7,6,2.5,5.1,2.5c0,0,0,0,0,0c0.1,0,0.1-0.1,0.2-0.1c0,0,0,0,0,0c0,0,0.1-0.1,0.1-0.1
			c0.1,0,0.1-0.1,0.2-0.1c0,0,0,0,0.1,0C5.8,2,5.9,2,6,1.9c0,0,0,0,0,0c0,0,0,0,0,0c0.9,0,1.3,0.2,1.4,0.6c-0.1,0-0.1,0.1-0.2,0.1
			C7.2,2.7,7.1,2.7,7.1,2.8S7,2.9,6.9,2.9C6.8,3,6.8,3,6.7,3.1"/>
		<path class="st2" d="M6.4,3.5c0,0.1-0.1,0.1-0.1,0.2C6.2,3.7,6.1,3.8,6.1,3.8C6.1,3.9,6,4,6,4c0,0.1-0.1,0.1-0.1,0.2
			C5.4,3.7,4.7,3.5,4.1,3.5c0,0,0,0,0,0c0,0,0.1-0.1,0.1-0.1c0,0,0,0,0,0c0.1,0,0.1-0.1,0.2-0.2C4.5,3,4.6,3,4.6,2.9
			c0.1-0.1,0.1-0.1,0.2-0.2l0,0c0,0,0,0,0,0C6,2.8,6.3,3.2,6.4,3.5"/>
		<path class="st2" d="M6.2,14.4C6.2,14.4,6.2,14.4,6.2,14.4c-0.1-0.1-0.2-0.1-0.2-0.1C6.1,14.3,6.2,14.3,6.2,14.4"/>
		<path class="st2" d="M6,1.9C6,1.9,6,1.9,6,1.9C6,1.9,6,1.9,6,1.9L6,1.9z"/>
		<path class="st2" d="M6,1.9C5.9,2,5.8,2,5.7,2.1c0,0,0,0,0.1,0C5.9,2,5.9,2,6,1.9"/>
		<path class="st2" d="M5.8,14.2C5.9,14.2,5.9,14.2,5.8,14.2L5.8,14.2C5.9,14.2,5.9,14.2,5.8,14.2"/>
		<path class="st2" d="M6,14.2C5.9,14.2,5.9,14.2,6,14.2c-0.1-0.1-0.1-0.1-0.1-0.1c0,0-0.1,0-0.1-0.1c0,0,0,0,0,0
			c0.3,0,1.4,0.1,3.3,0.6c0.1,0,0.1,0.1,0.2,0.1s0.1,0.1,0.2,0.1c0.1,0,0.1,0.1,0.2,0.1c0.1,0,0.1,0,0.2,0.1
			c-1.3-0.2-2.2-0.3-3.3-0.4c-0.1,0-0.2-0.1-0.2-0.1c-0.1,0-0.1-0.1-0.2-0.1C6.2,14.3,6.1,14.3,6,14.2C6,14.2,6,14.2,6,14.2"/>
		<path class="st2" d="M5.7,14.1C5.8,14.1,5.8,14.1,5.7,14.1C5.8,14.1,5.8,14.1,5.7,14.1L5.7,14.1z"/>
		<path class="st2" d="M5.7,2.1c0,0-0.1,0.1-0.2,0.1c0,0,0,0,0.1,0C5.6,2.2,5.6,2.1,5.7,2.1"/>
		<path class="st2" d="M5.6,4.7c0,0.1-0.1,0.1-0.1,0.2C5.4,5,5.4,5,5.4,5.1c0,0.1-0.1,0.1-0.1,0.2c0,0.1-0.1,0.2-0.1,0.2
			C4.6,4.9,3.8,4.7,3.3,4.7c0-0.1,0.1-0.1,0.1-0.2c0-0.1,0.1-0.2,0.2-0.2c0,0,0,0,0-0.1C3.6,4.1,3.7,4,3.8,3.9c0,0,0-0.1,0.1-0.1
			c0,0,0,0,0,0C5.1,3.9,5.4,4.4,5.6,4.7"/>
		<path class="st2" d="M5.4,13.9L5.4,13.9C5.4,13.8,5.3,13.8,5.4,13.9C5.3,13.8,5.4,13.8,5.4,13.9"/>
		<path class="st2" d="M5.2,2.5C5.2,2.5,5.2,2.5,5.2,2.5L5.2,2.5C5.2,2.5,5.2,2.5,5.2,2.5"/>
		<path class="st2" d="M5.2,13.7c-0.1-0.1-0.1-0.1-0.2-0.2c0,0,0,0-0.1,0C5,13.6,5.1,13.6,5.2,13.7"/>
		<path class="st2" d="M4.6,2.9C4.6,3,4.5,3,4.4,3.1c0,0,0,0,0,0C4.5,3,4.6,3,4.6,2.9"/>
		<path class="st2" d="M8.6,14.5c-1.3-0.3-2.2-0.5-3.2-0.6c0,0-0.1-0.1-0.1-0.1c0,0-0.1-0.1-0.1-0.1c-0.1-0.1-0.2-0.1-0.3-0.2
			c-0.1,0-0.1-0.1-0.2-0.1c-0.1-0.1-0.1-0.1-0.2-0.2c0,0,0,0,0,0c0,0,0,0,0.1,0C6,13.4,7.2,13.8,7.8,14C7.9,14,8,14.1,8,14.1
			c0.1,0,0.1,0.1,0.2,0.1c0.1,0,0.1,0.1,0.2,0.1C8.5,14.4,8.5,14.4,8.6,14.5"/>
		<path class="st2" d="M4.6,13.2C4.6,13.2,4.6,13.2,4.6,13.2C4.6,13.2,4.6,13.2,4.6,13.2L4.6,13.2z"/>
		<path class="st2" d="M3.8,3.8c0,0-0.1,0.1-0.1,0.1C3.8,3.8,3.8,3.8,3.8,3.8L3.8,3.8z"/>
		<path class="st2" d="M3.8,3.9C3.7,4,3.6,4.1,3.6,4.1C3.6,4.1,3.6,4,3.7,4C3.7,4,3.7,3.9,3.8,3.9"/>
		<path class="st2" d="M3.5,4.2c0,0.1-0.1,0.2-0.2,0.2c0,0.1-0.1,0.1-0.1,0.2l0,0c0-0.1,0.1-0.1,0.1-0.2C3.4,4.4,3.5,4.3,3.5,4.2"/>
		<path class="st2" d="M3.1,5C3.1,5,3.1,5,3.1,5C4.3,5.2,4.8,5.7,5,6.1c0,0.1,0,0.2-0.1,0.2s0,0.2-0.1,0.2c0,0.1,0,0.2,0,0.2
			c0,0.1,0,0.2,0,0.2C4.1,6.3,3.3,6.1,2.7,6c0-0.1,0-0.1,0.1-0.2c0-0.1,0-0.1,0-0.1c0,0,0,0,0-0.1c0-0.1,0.1-0.2,0.1-0.3
			C3,5.2,3,5.1,3.1,5C3.1,5,3.1,5,3.1,5L3.1,5z"/>
		<path class="st2" d="M3.1,5C3,5.1,3,5.2,2.9,5.3c0,0,0-0.1,0-0.1C3,5.2,3,5.1,3.1,5"/>
		<path class="st2" d="M2.9,5.3c0,0.1-0.1,0.2-0.1,0.3c0,0,0-0.1,0-0.1C2.9,5.4,2.9,5.4,2.9,5.3"/>
		<path class="st2" d="M2.8,5.8C2.8,5.7,2.8,5.7,2.8,5.8C2.8,5.7,2.7,5.8,2.8,5.8C2.7,5.8,2.7,5.8,2.8,5.8"/>
		<path class="st2" d="M4.7,8.6C3.9,7.8,3,7.6,2.4,7.5c0-0.1,0-0.1,0-0.2c0,0,0-0.1,0-0.1c0-0.1,0-0.1,0-0.2c0-0.1,0-0.1,0-0.1
			c0,0,0,0,0-0.1c0,0,0-0.1,0-0.1c0-0.1,0-0.2,0.1-0.3c0,0,0,0,0,0c1.3,0.2,1.9,0.8,2.1,1.2c0,0,0,0.1,0,0.1s0,0.1,0,0.1
			c0,0,0,0.1,0,0.1c0,0,0,0.1,0,0.1c0,0,0,0.1,0,0.1s0,0.1,0,0.1s0,0.1,0,0.1C4.7,8.5,4.7,8.5,4.7,8.6"/>
		<path class="st2" d="M2.4,7.9c1.3,0.2,2.1,0.9,2.4,1.2c0,0.1,0,0.2,0,0.2c0,0.1,0,0.2,0,0.2c0,0.1,0,0.1,0.1,0.2S5,10,5,10.1
			C4,9.3,3,9.1,2.4,9c0-0.1,0-0.1,0-0.1c0-0.1,0-0.1,0-0.2c0-0.1,0-0.1,0-0.2v0c0-0.1,0-0.1,0-0.2c0,0,0,0,0,0c0-0.1,0-0.2,0-0.2v0
			C2.4,8,2.4,7.9,2.4,7.9L2.4,7.9C2.4,7.9,2.4,7.9,2.4,7.9"/>
		<path class="st2" d="M10.9,12.7c0.1,0.1,0.1,0.1,0.2,0.2c0.1,0.1,0.1,0.1,0.2,0.2c0,0,0,0,0,0c-1.2,0.1-1.6,0.4-1.7,0.6
			c-0.1-0.1-0.1-0.1-0.2-0.1c-0.1-0.1-0.1-0.1-0.2-0.1c-0.1-0.1-0.1-0.1-0.2-0.2c-0.1-0.1-0.1-0.1-0.2-0.2c0.1-0.4,0.6-0.8,1.7-0.9
			l0,0c0,0,0.1,0.1,0.1,0.1c0,0,0.1,0.1,0.1,0.1C10.8,12.5,10.9,12.6,10.9,12.7"/>
		<path class="st2" d="M10.6,12.3c0,0,0.1,0.1,0.1,0.1C10.7,12.3,10.6,12.3,10.6,12.3"/>
		<path class="st2" d="M10.3,11.7c0,0.1,0.1,0.1,0.1,0.2C10.4,11.9,10.3,11.8,10.3,11.7C10.3,11.7,10.3,11.7,10.3,11.7"/>
		<path class="st2" d="M9.6,10.1c0,0.1,0,0.1,0,0.1c0,0,0,0,0,0.1c0,0.1,0,0.1,0.1,0.2c0,0,0,0,0,0c0,0,0,0,0,0
			c-1,0.1-1.7,0.5-2.1,0.9c0-0.1-0.1-0.1-0.1-0.2c0-0.1-0.1-0.1-0.1-0.2c0-0.1-0.1-0.1-0.1-0.2c0-0.1-0.1-0.1-0.1-0.2
			c0.2-0.4,0.9-1,2.2-1.2c0,0.1,0,0.2,0.1,0.3c0,0.1,0,0.2,0.1,0.2c0,0,0,0,0,0C9.6,10,9.6,10.1,9.6,10.1"/>
		<path class="st2" d="M10.4,11.9c-1,0.1-1.6,0.4-1.9,0.8c-0.1-0.1-0.1-0.1-0.1-0.2s-0.1-0.1-0.1-0.2c0-0.1-0.1-0.1-0.1-0.2
			C8.1,12.1,8,12,8,12c0.1-0.4,0.7-0.9,1.9-1.1c0,0.1,0.1,0.2,0.1,0.3c0,0.1,0.1,0.2,0.1,0.3s0.1,0.2,0.1,0.3c0,0,0,0,0,0
			c0,0,0,0,0,0.1C10.3,11.8,10.4,11.9,10.4,11.9"/>
		<path class="st2" d="M10.4,14.5c0.7,0.4,1.6,0.7,2.4,0.8l-0.5,0c-0.9-0.1-1.7-0.4-2.4-0.8c-0.8-0.4-1.4-0.9-2-1.6
			c-0.6-0.6-1-1.4-1.4-2.2C6.2,9.9,6,9,6,8.1c0-1,0.2-1.9,0.6-2.8C6.9,4.4,7.4,3.6,8.1,3c0.6-0.6,1.4-1.2,2.2-1.5
			c0.8-0.3,1.6-0.5,2.4-0.6c0,0,0,0,0.1,0l0.4,0c0.1,0,0.1,0,0.2,0c-0.9,0-1.8,0.3-2.6,0.6C9.9,1.8,9.2,2.3,8.6,3
			C7.9,3.6,7.4,4.4,7.1,5.3C6.7,6.1,6.5,7.1,6.5,8.1C6.5,9,6.7,9.9,7,10.8c0.3,0.8,0.8,1.6,1.4,2.2C8.9,13.6,9.6,14.1,10.4,14.5z"/>
		<path class="st2" d="M9.5,14.5c0.7,0.4,1.6,0.6,2.4,0.8l-0.5,0c-0.9-0.1-1.7-0.4-2.4-0.8c-0.8-0.4-1.4-0.9-2-1.6
			c-0.6-0.6-1-1.4-1.4-2.2C5.3,9.9,5.1,9,5.1,8.1c0-1,0.2-1.9,0.6-2.8C6,4.4,6.5,3.7,7.2,3c0.6-0.6,1.4-1.2,2.2-1.5
			c0.8-0.4,1.7-0.6,2.6-0.6h0c0.1,0,0.3,0,0.4,0c0,0,0,0,0,0c-0.9,0-1.7,0.3-2.5,0.6C9,1.8,8.3,2.4,7.7,3C7,3.7,6.5,4.4,6.2,5.3
			C5.8,6.1,5.6,7.1,5.6,8.1c0,0.9,0.2,1.8,0.5,2.6s0.8,1.6,1.4,2.2C8,13.6,8.7,14.1,9.5,14.5z"/>
		<path class="st2" d="M3.8,12.3C3.8,12.3,3.8,12.3,3.8,12.3C3.8,12.3,3.8,12.3,3.8,12.3"/>
		<path class="st2" d="M7.4,13.7C5.9,13.2,5,13,4.3,12.9l0,0c-0.1-0.1-0.1-0.1-0.2-0.2C4.1,12.7,4,12.6,4,12.5
			c-0.1-0.1-0.1-0.1-0.2-0.2c0,0,0,0,0,0c0-0.1-0.1-0.1-0.2-0.2c0,0,0,0,0,0c1.3,0.2,2.5,0.7,3.1,0.9c0.1,0.1,0.1,0.1,0.2,0.2
			C7,13.3,7,13.3,7.1,13.4c0.1,0.1,0.1,0.1,0.2,0.1C7.3,13.6,7.3,13.6,7.4,13.7"/>
		<path class="st2" d="M6,12.1c0,0.1,0.1,0.1,0.1,0.2c0.1,0.1,0.1,0.1,0.1,0.2c0.1,0.1,0.1,0.1,0.1,0.2C5,12.1,4,11.9,3.4,11.8
			c0,0,0-0.1,0-0.1c0-0.1-0.1-0.1-0.1-0.1c0-0.1-0.1-0.2-0.1-0.2c0-0.1-0.1-0.1-0.1-0.2c0,0,0,0,0,0c0,0,0,0,0,0
			C3,11,3,10.9,2.9,10.9c0,0,0,0,0,0c0,0,0,0,0,0c1.4,0.2,2.5,0.8,2.9,1.1C5.9,12,5.9,12.1,6,12.1"/>
		<path class="st2" d="M2.5,9.6c0-0.1,0-0.1,0-0.1c0,0,0,0,0,0c1.4,0.2,2.3,0.9,2.6,1.2c0,0.1,0.1,0.1,0.1,0.2
			c0,0.1,0.1,0.1,0.1,0.2s0.1,0.1,0.1,0.2c0,0.1,0.1,0.1,0.1,0.2c-1.2-0.7-2.2-0.9-2.8-1l0,0c0,0,0,0,0,0c0-0.1,0-0.1-0.1-0.2
			c0-0.1,0-0.2-0.1-0.3c0,0,0,0,0,0c0,0,0,0,0,0c0-0.1,0-0.2-0.1-0.3l0,0C2.5,9.7,2.5,9.6,2.5,9.6"/>
		<path class="st2" d="M13.6,11.1C13.6,11.1,13.6,11.1,13.6,11.1c0,0,0.1,0.1,0.1,0.1C13.6,11.2,13.6,11.1,13.6,11.1z"/>
		<path class="st2" d="M20.2,11.4c-0.7,0.8-1.6,1.4-2.6,1.4c-2.1,0-3.8-2.2-3.8-4.9s1.7-4.9,3.8-4.9c1,0,1.9,0.5,2.6,1.4h3
			c-0.3-0.4-0.5-0.8-0.9-1.2c-0.6-0.7-1.3-1.2-2.1-1.6c-0.8-0.4-1.7-0.7-2.7-0.7c-0.4,0-0.8,0-1.3,0c-0.6,0.1-1.1,0.2-1.6,0.4
			c-0.9,0.3-1.7,0.8-2.4,1.5c-0.7,0.7-1.3,1.5-1.7,2.4c-0.4,0.9-0.6,2-0.6,3s0.2,2.1,0.6,3c0.4,0.9,1,1.7,1.7,2.4
			c0.7,0.7,1.5,1.2,2.4,1.5c0.5,0.2,1,0.3,1.6,0.4c0.4,0.1,0.8,0.1,1.3,0c1-0.1,1.9-0.3,2.7-0.7c0.8-0.4,1.5-1,2.1-1.6
			c0.5-0.5,0.8-1.1,1.1-1.7C23.4,11.4,20.2,11.4,20.2,11.4z M13.5,5.1c0,0,0.1-0.1,0.1-0.1c0,0,0,0,0,0C13.6,5.1,13.5,5.1,13.5,5.1z
			"/>
		<polygon class="st2" points="22.6,12.3 46,11.5 22.3,11.4 		"/>
		<polygon class="st2" points="21.9,13.2 26,13.1 21.8,13.3 21.9,13 		"/>
		<polygon class="st2" points="21.6,13.6 23.4,13.6 21.5,13.7 		"/>
		<polygon class="st2" points="22.7,3.8 28.5,4.3 22.7,4.3 		"/>
	</g>
	<polygon class="st2" points="12.7,0.9 11.9,0.9 10.2,1.2 7.9,2.5 6.2,4.7 5.4,6.6 5.4,8.9 5.7,10.7 6.3,11.8 7.4,13.2 9.3,14.6 
		10.5,15 11.4,15.2 12.7,15.3 12,15.2 10.4,14.7 8.4,13.3 7.8,12.4 7,11.5 6.1,8.7 6.4,6.4 6.9,4.9 8,3.3 9.8,1.8 10.7,1.4 11.8,1 	
		"/>
</g>
</svg>
