<?xml version="1.0" encoding="utf-8"?>
<!-- Generator: Adobe Illustrator 23.0.0, SVG Export Plug-In . SVG Version: 6.00 Build 0)  -->
<svg version="1.1" id="Layer_1" xmlns="http://www.w3.org/2000/svg" xmlns:xlink="http://www.w3.org/1999/xlink" x="0px" y="0px"
	 viewBox="0 0 52.9 16.07" style="enable-background:new 0 0 52.9 16.07;" xml:space="preserve">
<style type="text/css">
	.st0{fill:#12A04A;}
	.st1{fill:#ED1F24;}
	.st2{fill:none;stroke:#000000;stroke-width:0.15;stroke-linecap:round;stroke-linejoin:round;}
	.st3{fill:#FFFFFF;}
</style>
<g>
	<path class="st1" d="M21.31,0.41c-0.01-0.03-0.01-0.06-0.01-0.1c0-0.02,0-0.05-0.01-0.07C21.3,0.3,21.3,0.35,21.31,0.41"/>
	<g>
		<path d="M17.94,10.94V5.87c0-0.13-0.01-0.16-0.03-0.23l1.71-0.01c1.03,0,1.7,0.6,1.7,1.51c0,1.01-0.77,1.62-2.06,1.62h-0.52v2.18
			c0,0.14,0,0.16,0.03,0.23h-0.87C17.93,11.1,17.94,11.07,17.94,10.94z M18.74,8.39h0.43c0.33,0,0.57-0.05,0.72-0.11
			c0.37-0.19,0.62-0.61,0.62-1.12c0-0.47-0.21-0.85-0.56-1.02c-0.16-0.08-0.41-0.12-0.73-0.12h-0.48V8.39z"/>
		<path d="M21.83,10.94V7.11c0-0.12-0.01-0.16-0.03-0.23l0.74-0.01V7.5C22.71,7,23.02,6.8,23.63,6.8V7.4
			c-0.07-0.01-0.1-0.01-0.14-0.01c-0.58,0-0.93,0.37-0.93,0.98v2.57c0,0.12,0.01,0.16,0.04,0.23h-0.8
			C21.83,11.1,21.83,11.07,21.83,10.94z"/>
		<path d="M25.68,6.79c1.21,0,1.95,0.88,1.95,2.28c0,1.3-0.78,2.18-1.95,2.18c-1.18,0-1.94-0.88-1.94-2.23
			C23.75,7.66,24.5,6.79,25.68,6.79z M24.53,9.02c0.01,1.19,0.45,1.91,1.17,1.91c0.7,0,1.14-0.75,1.14-1.91
			c0-1.18-0.44-1.9-1.16-1.9C24.98,7.11,24.53,7.86,24.53,9.02z"/>
		<path d="M31.29,7.56c-0.08-0.08-0.14-0.12-0.19-0.16c-0.24-0.15-0.53-0.25-0.81-0.25c-0.78,0-1.28,0.74-1.28,1.89
			c0,1.14,0.46,1.84,1.22,1.84c0.21,0,0.43-0.05,0.63-0.15c0.17-0.08,0.25-0.15,0.43-0.34v0.56c-0.43,0.24-0.71,0.31-1.2,0.31
			c-1.19,0-1.88-0.79-1.88-2.2c0-1.41,0.78-2.27,2.04-2.27c0.38,0,0.65,0.05,1.03,0.18V7.56z"/>
		<path d="M32.69,3.48c-0.03,0.1-0.04,0.15-0.04,0.32v7.07c0,0.18,0.01,0.21,0.04,0.31h-0.81c0.03-0.1,0.03-0.14,0.03-0.31V3.8
			c0-0.17,0-0.22-0.03-0.32H32.69z"/>
		<path d="M33.81,7.16c0.14-0.06,0.23-0.1,0.29-0.13c0.37-0.15,0.81-0.25,1.19-0.25c0.5,0,0.96,0.19,1.18,0.49
			c0.08,0.12,0.13,0.34,0.13,0.61v2.35c0,0.35,0.08,0.51,0.24,0.51c0.08,0,0.2-0.05,0.3-0.15v0.44c-0.21,0.15-0.4,0.22-0.6,0.22
			c-0.33,0-0.65-0.28-0.65-0.58c0-0.03,0.01-0.07,0.01-0.13c-0.11,0.14-0.16,0.19-0.24,0.28c-0.33,0.28-0.71,0.44-1.09,0.44
			c-0.68,0-1.19-0.51-1.19-1.22c0-0.68,0.41-1.14,1.18-1.37l0.74-0.22c0.43-0.13,0.58-0.28,0.58-0.63c0-0.37-0.32-0.64-0.78-0.64
			c-0.19,0-0.47,0.07-0.68,0.17c-0.16,0.08-0.25,0.14-0.46,0.31L33.81,7.16z M35.87,8.55c-0.1,0.08-0.17,0.12-0.24,0.15
			c-0.11,0.05-0.35,0.14-0.69,0.27C34.33,9.2,34.1,9.45,34.1,9.95c0,0.47,0.32,0.81,0.75,0.81c0.56,0,1.02-0.49,1.02-1.12V8.55z"/>
		<path d="M37.42,10.35c0.23,0.2,0.33,0.28,0.53,0.37c0.21,0.08,0.49,0.15,0.69,0.15c0.5,0,0.86-0.32,0.86-0.76
			c0-0.38-0.2-0.55-1.03-0.88c-0.24-0.1-0.45-0.21-0.62-0.31c-0.28-0.19-0.45-0.54-0.45-0.91c0-0.72,0.61-1.23,1.47-1.23
			c0.42,0,0.77,0.08,1.25,0.29l-0.12,0.49c-0.2-0.15-0.28-0.2-0.44-0.28c-0.2-0.08-0.43-0.13-0.6-0.13c-0.48,0-0.83,0.29-0.83,0.7
			c0,0.11,0.03,0.22,0.08,0.29c0.11,0.16,0.25,0.25,0.81,0.48c0.89,0.35,1.2,0.68,1.2,1.28c0,0.83-0.62,1.36-1.59,1.36
			c-0.27,0-0.54-0.05-0.78-0.12c-0.2-0.06-0.3-0.11-0.57-0.25L37.42,10.35z"/>
		<path d="M40.77,10.35c0.23,0.2,0.33,0.28,0.53,0.37c0.21,0.08,0.49,0.15,0.69,0.15c0.5,0,0.86-0.32,0.86-0.76
			c0-0.38-0.2-0.55-1.03-0.88c-0.24-0.1-0.45-0.21-0.62-0.31c-0.28-0.19-0.45-0.54-0.45-0.91c0-0.72,0.61-1.23,1.47-1.23
			c0.42,0,0.77,0.08,1.25,0.29l-0.12,0.49c-0.2-0.15-0.28-0.2-0.44-0.28c-0.2-0.08-0.43-0.13-0.6-0.13c-0.48,0-0.83,0.29-0.83,0.7
			c0,0.11,0.03,0.22,0.08,0.29c0.11,0.16,0.25,0.25,0.81,0.48c0.89,0.35,1.2,0.68,1.2,1.28c0,0.83-0.62,1.36-1.59,1.36
			c-0.27,0-0.54-0.05-0.78-0.12c-0.2-0.06-0.3-0.11-0.57-0.25L40.77,10.35z"/>
		<path d="M44.76,5.77c0.27,0,0.43,0.12,0.43,0.35c0,0.22-0.17,0.33-0.52,0.33c-0.26,0-0.43-0.12-0.43-0.33
			C44.25,5.87,44.42,5.77,44.76,5.77z M45.14,6.88C45.1,6.96,45.1,6.99,45.1,7.11v3.83c0,0.13,0,0.16,0.03,0.23h-0.8
			c0.03-0.07,0.03-0.1,0.03-0.23V7.11c0-0.12-0.01-0.16-0.03-0.23H45.14z"/>
		<path d="M48.96,7.56c-0.08-0.08-0.14-0.12-0.19-0.16c-0.24-0.15-0.53-0.25-0.81-0.25c-0.78,0-1.28,0.74-1.28,1.89
			c0,1.14,0.46,1.84,1.22,1.84c0.21,0,0.43-0.05,0.63-0.15c0.17-0.08,0.25-0.15,0.43-0.34v0.56c-0.43,0.24-0.71,0.31-1.2,0.31
			c-1.19,0-1.88-0.79-1.88-2.2c0-1.41,0.78-2.27,2.04-2.27c0.38,0,0.65,0.05,1.03,0.18V7.56z"/>
	</g>
	<g>
		<path class="st2" d="M42.35,12.8c0.04,0,0.09,0,0.13,0c0.04,0,0.09,0,0.13-0.01l-0.01,0.05c-0.01,0-0.03,0-0.04,0
			c-0.01,0-0.03,0-0.04,0c0,0.04-0.01,0.11-0.01,0.18c0,0.08,0,0.16,0,0.24c0,0.08,0,0.16,0,0.24c0,0.08,0.01,0.14,0.01,0.2
			c-0.02,0-0.04-0.01-0.06-0.02c-0.02-0.01-0.04-0.01-0.05-0.01c-0.01,0-0.01,0-0.02,0c-0.01,0-0.01,0-0.02,0
			c-0.07,0.02-0.14,0.04-0.21,0.05c-0.06,0.01-0.14,0.01-0.24,0.01c-0.13,0-0.25-0.02-0.37-0.06c-0.11-0.04-0.21-0.09-0.3-0.16
			c-0.08-0.07-0.15-0.16-0.2-0.26c-0.05-0.1-0.07-0.21-0.07-0.34c0-0.14,0.02-0.26,0.06-0.36c0.04-0.1,0.09-0.18,0.16-0.24
			c0.06-0.06,0.13-0.11,0.21-0.15s0.15-0.06,0.22-0.08c0.07-0.02,0.13-0.03,0.18-0.03c0.05,0,0.09,0,0.11,0
			c0.11,0,0.2,0.01,0.29,0.03c0.09,0.02,0.17,0.05,0.23,0.08l-0.08,0.11c-0.05-0.05-0.11-0.1-0.18-0.13
			c-0.07-0.04-0.16-0.06-0.27-0.06c-0.1,0-0.2,0.01-0.29,0.04c-0.09,0.03-0.17,0.07-0.24,0.13c-0.07,0.06-0.12,0.14-0.16,0.24
			c-0.04,0.1-0.06,0.22-0.06,0.36c0,0.14,0.02,0.26,0.06,0.36c0.04,0.1,0.1,0.19,0.17,0.26c0.07,0.07,0.15,0.12,0.25,0.16
			c0.09,0.04,0.19,0.05,0.3,0.05c0.09,0,0.16-0.01,0.23-0.02c0.06-0.02,0.11-0.04,0.15-0.06c0-0.06,0.01-0.12,0.01-0.18
			c0-0.07,0-0.13,0-0.2c0-0.08,0-0.16,0-0.23c0-0.07,0-0.13-0.01-0.17c-0.05,0-0.1,0-0.16,0c-0.05,0-0.1,0-0.15,0l0.01-0.05
			C42.15,12.79,42.25,12.8,42.35,12.8z"/>
		<path class="st2" d="M43.26,12.82c0.02,0,0.05,0.01,0.07,0.01c0.02,0,0.05,0,0.07,0c0.08,0,0.15-0.01,0.2-0.03
			c0.05-0.02,0.09-0.05,0.12-0.09c0.03-0.04,0.05-0.07,0.06-0.12c0.01-0.04,0.01-0.08,0.01-0.12c0-0.12-0.04-0.2-0.11-0.26
			c-0.07-0.06-0.18-0.09-0.33-0.09c-0.03,0-0.07,0-0.11,0c-0.04,0-0.08,0.01-0.12,0.01c0,0.05-0.01,0.11-0.01,0.17
			c0,0.06,0,0.13,0,0.2c0,0.07,0,0.14,0,0.22c0,0.08,0,0.15,0,0.23c0,0.07,0,0.15,0,0.22c0,0.07,0,0.14,0,0.21c0,0.07,0,0.12,0,0.18
			c0,0.05,0,0.1,0.01,0.14h-0.18c0-0.03,0-0.07,0.01-0.12c0-0.05,0-0.11,0.01-0.17c0-0.06,0-0.13,0-0.2c0-0.07,0-0.15,0-0.23
			c0-0.08,0-0.16,0-0.24c0-0.08,0-0.16,0-0.23c0-0.08,0-0.15-0.01-0.22c0-0.07-0.01-0.13-0.01-0.19c0.07-0.01,0.14-0.01,0.2-0.02
			c0.06,0,0.12-0.01,0.17-0.01c0.12,0,0.22,0.01,0.31,0.03c0.08,0.02,0.15,0.05,0.2,0.08c0.05,0.03,0.09,0.08,0.11,0.12
			c0.02,0.05,0.04,0.1,0.04,0.16c0,0.1-0.04,0.18-0.11,0.25c-0.07,0.07-0.19,0.11-0.34,0.13c0.11,0.03,0.21,0.07,0.29,0.13
			c0.08,0.06,0.15,0.14,0.2,0.22c0.05,0.08,0.1,0.17,0.13,0.25c0.03,0.09,0.06,0.17,0.09,0.24l-0.23,0.02
			c-0.02-0.09-0.04-0.19-0.07-0.28c-0.03-0.09-0.07-0.18-0.12-0.26c-0.05-0.08-0.1-0.14-0.17-0.2c-0.06-0.05-0.13-0.09-0.21-0.1
			c-0.03,0-0.05-0.01-0.08-0.01c-0.03,0-0.05,0-0.08,0L43.26,12.82z"/>
		<path class="st2" d="M46.14,12.91c0,0.14-0.03,0.26-0.08,0.36c-0.05,0.1-0.12,0.19-0.2,0.26c-0.08,0.07-0.18,0.12-0.29,0.15
			c-0.11,0.03-0.22,0.05-0.34,0.05c-0.12,0-0.24-0.02-0.35-0.06c-0.11-0.04-0.21-0.09-0.3-0.16c-0.09-0.07-0.15-0.16-0.21-0.26
			c-0.05-0.1-0.08-0.22-0.08-0.35c0-0.11,0.01-0.21,0.04-0.3c0.03-0.09,0.07-0.16,0.12-0.22c0.05-0.06,0.11-0.12,0.17-0.16
			c0.06-0.04,0.13-0.08,0.2-0.11c0.07-0.03,0.14-0.05,0.2-0.06c0.07-0.01,0.13-0.02,0.19-0.02c0.11,0,0.22,0.02,0.33,0.05
			c0.11,0.04,0.21,0.09,0.29,0.16c0.09,0.07,0.16,0.16,0.21,0.27C46.11,12.65,46.14,12.77,46.14,12.91z M44.51,12.86
			c0,0.1,0.01,0.2,0.04,0.3c0.02,0.1,0.07,0.19,0.12,0.27c0.06,0.08,0.13,0.14,0.22,0.19c0.09,0.05,0.21,0.08,0.34,0.08
			c0.13,0,0.24-0.02,0.32-0.06c0.09-0.04,0.16-0.1,0.22-0.17c0.06-0.07,0.09-0.15,0.12-0.23c0.02-0.09,0.04-0.18,0.04-0.27
			c0-0.11-0.01-0.21-0.04-0.32c-0.03-0.1-0.07-0.2-0.12-0.28c-0.06-0.08-0.13-0.15-0.22-0.2c-0.09-0.05-0.2-0.08-0.33-0.08
			c-0.12,0-0.22,0.02-0.31,0.07c-0.09,0.04-0.16,0.1-0.22,0.18c-0.06,0.07-0.1,0.15-0.13,0.25C44.52,12.67,44.51,12.77,44.51,12.86z
			"/>
		<path class="st2" d="M47.76,12.1c-0.01,0.04-0.01,0.1-0.01,0.18c0,0.08,0,0.16-0.01,0.25c0,0.09,0,0.18,0,0.28
			c0,0.1,0,0.18,0,0.26c0,0.12-0.02,0.22-0.05,0.31c-0.03,0.08-0.08,0.15-0.14,0.21c-0.06,0.05-0.13,0.09-0.21,0.12
			c-0.08,0.02-0.17,0.04-0.26,0.04c-0.09,0-0.18-0.01-0.26-0.04c-0.08-0.03-0.15-0.06-0.21-0.12c-0.06-0.05-0.11-0.12-0.15-0.21
			c-0.04-0.09-0.05-0.19-0.05-0.31c0-0.09,0-0.18,0-0.28c0-0.1,0-0.19,0-0.29c0-0.09,0-0.16,0-0.23c0-0.07-0.01-0.13-0.01-0.17h0.21
			c-0.02,0.17-0.03,0.34-0.03,0.5c0,0.16,0,0.33,0,0.5c0,0.08,0.01,0.16,0.03,0.23c0.02,0.07,0.06,0.13,0.11,0.19
			c0.05,0.05,0.11,0.1,0.18,0.13c0.07,0.03,0.16,0.05,0.25,0.05c0.08,0,0.15-0.01,0.22-0.04c0.07-0.03,0.12-0.07,0.17-0.12
			c0.05-0.05,0.08-0.11,0.11-0.18c0.03-0.07,0.04-0.15,0.04-0.23v-0.29c0-0.07,0-0.14,0-0.21c0-0.07,0-0.14,0-0.2
			c0-0.06,0-0.12-0.01-0.18c0-0.05-0.01-0.1-0.01-0.14H47.76z"/>
		<path class="st2" d="M48.4,12.97c0.07,0.02,0.14,0.03,0.21,0.03c0.06,0,0.11-0.01,0.16-0.02c0.05-0.02,0.1-0.04,0.13-0.07
			c0.04-0.03,0.07-0.08,0.09-0.13c0.02-0.05,0.03-0.12,0.03-0.19c0-0.08-0.01-0.15-0.04-0.21c-0.02-0.06-0.06-0.11-0.1-0.14
			c-0.04-0.04-0.09-0.07-0.15-0.08c-0.06-0.02-0.13-0.03-0.2-0.03c-0.04,0-0.08,0-0.12,0.01c-0.04,0.01-0.08,0.01-0.12,0.02
			c0,0.05-0.01,0.11-0.01,0.18c0,0.07-0.01,0.14-0.01,0.21c0,0.07,0,0.15-0.01,0.23c0,0.08,0,0.16,0,0.24c0,0.07,0,0.14,0,0.21
			c0,0.07,0,0.13,0,0.19s0,0.12,0.01,0.16s0.01,0.09,0.01,0.12h-0.18c0-0.03,0-0.08,0.01-0.13c0-0.05,0-0.11,0.01-0.17
			c0-0.06,0-0.13,0-0.21c0-0.07,0-0.15,0-0.23c0-0.08,0-0.15,0-0.23c0-0.08,0-0.15,0-0.23c0-0.07,0-0.14-0.01-0.21
			c0-0.07,0-0.13-0.01-0.18c0.15-0.02,0.28-0.03,0.4-0.03c0.23,0,0.4,0.04,0.52,0.12c0.11,0.08,0.17,0.21,0.17,0.39
			c0,0.08-0.02,0.15-0.06,0.2c-0.04,0.06-0.09,0.1-0.15,0.14c-0.06,0.04-0.13,0.06-0.21,0.08c-0.08,0.02-0.16,0.03-0.24,0.03
			c-0.03,0-0.06,0-0.08,0c-0.03,0-0.05,0-0.08-0.01L48.4,12.97z"/>
	</g>
	<g>
		<path class="st1" d="M16.41,0.95h0.03c-0.03,0-0.06,0-0.09,0c0.01,0,0.02,0,0.02,0C16.38,0.95,16.39,0.95,16.41,0.95"/>
		<path class="st1" d="M16.35,0.95c-0.02,0-0.05,0-0.07,0c-0.02,0-0.05,0-0.07,0l-0.12,0C16.18,0.96,16.26,0.95,16.35,0.95"/>
		<path class="st1" d="M16.09,0.96l0.12,0c-0.19,0.01-0.36,0.02-0.81,0.04c0.13-0.01,0.26-0.01,0.4-0.02
			C15.9,0.97,15.99,0.96,16.09,0.96"/>
		<path class="st1" d="M13.35,1.07l-0.38,0.02c0.04,0,0.09-0.01,0.13-0.01C13.17,1.08,13.26,1.08,13.35,1.07"/>
		<path class="st1" d="M12.9,1.18c0.07-0.02,0.15-0.03,0.22-0.04c0.07-0.01,0.15-0.02,0.22-0.03c0.07-0.01,0.15-0.02,0.22-0.03
			c0.07-0.01,0.15-0.01,0.23-0.02c0.06,0,0.12-0.01,0.18-0.01c0.06,0,0.12-0.01,0.18-0.01c0.11-0.01,0.22-0.01,0.32-0.01
			C14.82,1.01,15.1,1,15.31,1C14.34,1.05,13.62,1.1,12.9,1.18"/>
		<path class="st1" d="M15.75,15.64c0.02,0,0.05,0.01,0.07,0.01c-0.05-0.01-0.1-0.01-0.15-0.02C15.7,15.63,15.73,15.64,15.75,15.64"
			/>
		<path class="st1" d="M15.83,15.65l-1.18-0.05c0.27,0,0.54,0,0.88,0c0.03,0,0.05,0.01,0.08,0.01c0.03,0,0.05,0.01,0.08,0.01
			C15.73,15.64,15.78,15.64,15.83,15.65"/>
		<path class="st1" d="M14.75,15.42c-0.03-0.01-0.06-0.02-0.09-0.03c-0.04-0.01-0.08-0.03-0.12-0.04c0.03,0.01,0.07,0.02,0.11,0.03
			C14.68,15.4,14.71,15.41,14.75,15.42"/>
		<path class="st1" d="M14.39,15.3c0.04,0.01,0.07,0.03,0.11,0.04C14.47,15.33,14.43,15.32,14.39,15.3"/>
		<path class="st1" d="M14.22,15.24c0.06,0.02,0.11,0.04,0.17,0.06C14.34,15.28,14.28,15.26,14.22,15.24"/>
		<path class="st1" d="M13.14,14.7c0.05,0.03,0.11,0.06,0.16,0.09C13.24,14.76,13.19,14.73,13.14,14.7"/>
		<path class="st1" d="M12.81,15.45c-0.08-0.09,0.34-0.23,1.34-0.24c0.03,0.01,0.05,0.02,0.08,0.03c0.06,0.02,0.11,0.04,0.17,0.06
			c0.04,0.02,0.07,0.03,0.11,0.04c0.01,0,0.02,0,0.03,0.01c0.04,0.02,0.08,0.03,0.12,0.04c0.03,0.01,0.06,0.02,0.09,0.03
			c0.05,0.02,0.1,0.03,0.15,0.04c0.08,0.02,0.17,0.04,0.26,0.07c-0.59-0.01-1.18,0.05-1.78,0.02c-0.05-0.01-0.1-0.01-0.14-0.02
			c-0.05-0.01-0.09-0.02-0.14-0.02c-0.05-0.01-0.09-0.02-0.14-0.03C12.9,15.47,12.86,15.46,12.81,15.45"/>
		<path class="st1" d="M13.06,2c-0.07,0.05-0.15,0.09-0.22,0.14C12.91,2.09,12.98,2.04,13.06,2"/>
		<path class="st1" d="M12.28,15.32c-0.07-0.02-0.14-0.04-0.21-0.07c-0.07-0.02-0.14-0.05-0.21-0.07c-0.07-0.03-0.14-0.05-0.21-0.08
			c-0.07-0.03-0.14-0.06-0.2-0.09c-0.05-0.19,0.39-0.42,1.44-0.47c0.07,0.05,0.15,0.1,0.22,0.14c0.01,0.01,0.02,0.01,0.03,0.02
			c0.05,0.03,0.11,0.06,0.16,0.09c0.01,0.01,0.02,0.01,0.03,0.02c0.07,0.04,0.15,0.08,0.23,0.12c0.08,0.04,0.16,0.08,0.24,0.12
			C12.59,15.09,12.33,15.25,12.28,15.32"/>
		<path class="st1" d="M12.3,14.1c0.01,0.01,0.02,0.02,0.03,0.02C12.32,14.12,12.31,14.11,12.3,14.1"/>
		<path class="st1" d="M11.96,13.8c0.03,0.03,0.06,0.06,0.09,0.08c-0.08-0.07-0.15-0.14-0.23-0.22
			C11.86,13.72,11.91,13.76,11.96,13.8"/>
		<path class="st1" d="M11.53,1.6c0.07-0.03,0.14-0.06,0.21-0.08c0.07-0.03,0.14-0.05,0.21-0.08c0.07-0.02,0.14-0.05,0.21-0.07
			c0.07-0.02,0.14-0.04,0.21-0.06c1.06-0.18,2.49-0.27,3.62-0.33c-0.04,0.01-0.09,0.01-0.13,0.02C15.82,1,15.77,1,15.73,1.01
			c-0.04,0.01-0.09,0.01-0.13,0.02c-0.04,0.01-0.09,0.02-0.13,0.02c-0.04,0.01-0.09,0.02-0.13,0.02c-0.04,0.01-0.08,0.02-0.13,0.03
			c-0.09,0.02-0.17,0.04-0.26,0.06C13.56,1.27,12.47,1.41,11.53,1.6"/>
		<path class="st1" d="M11.78,13.64c0.01,0.01,0.02,0.02,0.03,0.03c0.07,0.07,0.15,0.15,0.23,0.22c0.04,0.03,0.07,0.06,0.11,0.1
			c0.05,0.04,0.1,0.08,0.14,0.12c0.01,0.01,0.02,0.02,0.03,0.02c0.01,0.01,0.02,0.02,0.03,0.03c0.02,0.02,0.05,0.03,0.07,0.05
			c0.05,0.04,0.1,0.07,0.14,0.11c-1.2,0.07-1.53,0.32-1.62,0.45c-0.06-0.03-0.13-0.07-0.19-0.11c-0.06-0.04-0.13-0.07-0.19-0.11
			c-0.06-0.04-0.13-0.08-0.19-0.12c-0.06-0.04-0.12-0.08-0.18-0.13c-0.01-0.27,0.48-0.6,1.57-0.68
			C11.77,13.62,11.77,13.63,11.78,13.64"/>
		<path class="st1" d="M11.11,3.77c-0.03,0.04-0.06,0.08-0.09,0.12C11.01,3.92,11,3.94,10.98,3.96C10.97,3.97,10.96,3.98,10.96,4
			c-0.05,0.07-0.1,0.15-0.15,0.22l0,0c-0.05,0.08-0.1,0.15-0.14,0.23c-0.01,0.02-0.02,0.04-0.03,0.06c-0.04,0.06-0.07,0.12-0.1,0.18
			C9.33,4.86,8.37,5.2,7.59,5.7c0.03-0.07,0.06-0.14,0.09-0.22c0.03-0.07,0.06-0.14,0.09-0.21C7.8,5.2,7.83,5.13,7.87,5.06
			c0.03-0.07,0.07-0.14,0.11-0.2C8.69,4.34,9.86,3.94,11.11,3.77"/>
		<path class="st1" d="M11.03,1.83c0.86-0.25,2.12-0.45,3.55-0.55c-0.09,0.03-0.17,0.06-0.25,0.09c-0.08,0.03-0.16,0.06-0.24,0.1
			c-0.08,0.03-0.16,0.07-0.24,0.11h0c-0.01,0.01-0.03,0.01-0.04,0.02c-0.07,0.03-0.13,0.06-0.19,0.09c-1.3,0.12-2.4,0.32-3.35,0.61
			c0.06-0.04,0.12-0.08,0.19-0.12c0.06-0.04,0.13-0.08,0.19-0.12c0.06-0.04,0.13-0.08,0.19-0.11C10.9,1.9,10.97,1.87,11.03,1.83"/>
		<path class="st1" d="M10.34,5.05c-0.01,0.03-0.03,0.05-0.04,0.08c-0.01,0.02-0.02,0.04-0.03,0.07c-0.02,0.03-0.03,0.07-0.05,0.11
			c-0.02,0.04-0.03,0.09-0.05,0.13c0,0.01-0.01,0.01-0.01,0.02c-0.02,0.04-0.03,0.07-0.05,0.11c-0.02,0.04-0.03,0.09-0.05,0.13
			c-0.02,0.04-0.03,0.09-0.05,0.13C9.99,5.91,9.96,6,9.93,6.09C8.79,6.27,7.87,6.64,7.2,7.18C7.21,7.1,7.22,7.03,7.24,6.95
			c0.01-0.08,0.03-0.16,0.05-0.23C7.3,6.63,7.32,6.56,7.34,6.48C7.36,6.4,7.38,6.33,7.4,6.25C7.89,5.8,8.91,5.26,10.34,5.05"/>
		<path class="st1" d="M9.98,10.72c-0.02-0.05-0.03-0.11-0.05-0.16c0.02,0.07,0.04,0.13,0.06,0.2C9.99,10.74,9.99,10.73,9.98,10.72"
			/>
		<path class="st1" d="M9.83,2.62c0.83-0.34,2.12-0.63,3.45-0.76C13.21,1.9,13.13,1.95,13.06,2c-0.07,0.05-0.15,0.09-0.22,0.14
			c-0.07,0.05-0.15,0.1-0.22,0.15c-0.07,0.05-0.14,0.11-0.21,0.16c-1.26,0.14-2.32,0.39-3.24,0.77c0.05-0.06,0.11-0.11,0.16-0.16
			c0.05-0.05,0.11-0.1,0.17-0.15c0.05-0.05,0.11-0.1,0.17-0.15C9.71,2.71,9.77,2.66,9.83,2.62"/>
		<path class="st1" d="M9.65,7.47c0-0.03,0.01-0.05,0.01-0.08C9.65,7.42,9.65,7.46,9.65,7.5C9.65,7.49,9.65,7.48,9.65,7.47"/>
		<path class="st1" d="M9.62,8.79c0,0.04,0,0.08,0.01,0.12C9.62,8.86,9.62,8.83,9.62,8.79"/>
		<path class="st1" d="M9.61,8.62c0,0.04,0,0.08,0.01,0.12c0-0.01,0-0.02,0-0.03C9.61,8.68,9.61,8.65,9.61,8.62"/>
		<path class="st1" d="M7.32,10.07C7.3,9.99,7.28,9.91,7.26,9.83C7.25,9.75,7.23,9.68,7.22,9.6C7.2,9.52,7.19,9.44,7.18,9.36
			c0.29-0.47,1.1-1.09,2.42-1.3c0,0.02,0,0.04,0,0.07v0.07v0.07v0.07c0,0.08,0,0.15,0,0.23c0,0.02,0,0.04,0,0.06
			c0,0.03,0,0.06,0,0.09c0,0.01,0,0.02,0,0.03c0,0.02,0,0.03,0,0.05c0,0.04,0,0.08,0.01,0.12c0,0.03,0.01,0.06,0.01,0.09v0.02
			C9.64,9.06,9.64,9.1,9.65,9.14c0,0.03,0.01,0.07,0.01,0.1C8.62,9.4,7.85,9.76,7.38,10.3C7.36,10.22,7.34,10.14,7.32,10.07"/>
		<path class="st1" d="M12.03,2.77c-0.04,0.04-0.08,0.07-0.12,0.11c-0.01,0.01-0.02,0.02-0.03,0.03c-0.06,0.05-0.11,0.11-0.17,0.16
			c-0.02,0.02-0.05,0.05-0.07,0.07c-0.01,0.01-0.01,0.01-0.02,0.02c-0.03,0.03-0.06,0.07-0.1,0.1c-0.04,0.04-0.08,0.09-0.12,0.13
			c-0.02,0.02-0.04,0.05-0.06,0.07c-1.22,0.16-2.24,0.45-3.1,0.9C8.3,4.31,8.34,4.24,8.38,4.18c0.04-0.06,0.09-0.13,0.13-0.19
			c0.05-0.06,0.09-0.12,0.14-0.18C8.7,3.75,8.75,3.69,8.8,3.64c0.79-0.43,2.03-0.78,3.31-0.93C12.08,2.73,12.06,2.75,12.03,2.77"/>
		<path class="st1" d="M9.51,1.24c0.71-0.03,1.41-0.06,2.12-0.09c0,0-0.01,0-0.01,0.01c-0.08,0.01-0.15,0.01-0.23,0.02
			c-0.08,0.01-0.15,0.02-0.23,0.03c-0.08,0.01-0.15,0.02-0.23,0.04c-0.07,0.01-0.15,0.03-0.22,0.04c-0.08-0.07-0.38-0.07-1.29-0.03
			c0.01,0,0.02,0,0.03,0c0.01,0,0.02,0,0.03,0S9.5,1.24,9.51,1.24"/>
		<path class="st1" d="M8.91,15.36H8.89c-0.02,0-0.04-0.01-0.06-0.01C8.86,15.35,8.88,15.36,8.91,15.36"/>
		<path class="st1" d="M8.67,15.33c0.35,0.02,0.76,0.05,1.19,0.07c-0.28-0.01-0.66-0.03-0.95-0.04c-0.03,0-0.05-0.01-0.08-0.01
			c-0.02,0-0.04-0.01-0.06-0.01C8.73,15.34,8.7,15.33,8.67,15.33"/>
		<path class="st1" d="M9.33,1.7c-0.11-0.17-0.5-0.23-1.39-0.23C8.03,1.45,8.12,1.43,8.2,1.41c0.09-0.02,0.18-0.04,0.26-0.06
			c0.09-0.02,0.18-0.03,0.26-0.04c0.02,0,0.03-0.01,0.05-0.01l0.08-0.01C8.9,1.29,8.95,1.28,9,1.28h0h0.03
			c0.8-0.02,1.21-0.01,1.15,0.13c-0.07,0.02-0.15,0.04-0.22,0.06C9.89,1.49,9.82,1.51,9.75,1.54C9.68,1.56,9.61,1.59,9.54,1.62
			C9.47,1.64,9.4,1.67,9.33,1.7"/>
		<path class="st1" d="M8.67,15.33c0.03,0.01,0.07,0.01,0.1,0.02c-0.02,0-0.04-0.01-0.06-0.01C8.69,15.33,8.68,15.33,8.67,15.33"/>
		<path class="st1" d="M8.27,15.25H8.26c-0.03,0-0.05-0.01-0.08-0.02C8.21,15.24,8.24,15.25,8.27,15.25"/>
		<path class="st1" d="M8.07,2.39c-0.16-0.26-0.6-0.39-1.48-0.41c0.05-0.03,0.1-0.05,0.16-0.07C6.77,1.89,6.8,1.88,6.83,1.87
			c0.08-0.04,0.16-0.07,0.24-0.1C7.1,1.75,7.13,1.74,7.16,1.73c0.04-0.02,0.09-0.03,0.13-0.05c0.01,0,0.02-0.01,0.03-0.01
			C7.4,1.64,7.49,1.61,7.57,1.58h0.03c0.55,0.01,1.27,0.05,1.24,0.35C8.78,1.97,8.71,2,8.64,2.04C8.58,2.07,8.51,2.11,8.45,2.15
			C8.39,2.19,8.32,2.23,8.26,2.27C8.2,2.31,8.13,2.35,8.07,2.39"/>
		<path class="st1" d="M9.63,7.63C9.23,7.7,7.99,7.9,7.12,8.76c0-0.04,0-0.07-0.01-0.11c0-0.04,0-0.07,0-0.11c0-0.04,0-0.07,0-0.11
			c0-0.04,0-0.07,0-0.11c0-0.05,0-0.09,0-0.14c0-0.04,0-0.09,0-0.14c0-0.05,0.01-0.09,0.01-0.14c0-0.04,0.01-0.09,0.01-0.14
			C7.52,7.29,8.44,6.7,9.82,6.49C9.8,6.58,9.78,6.67,9.76,6.77c0,0.02-0.01,0.04-0.01,0.06C9.73,6.9,9.72,6.98,9.71,7.05
			c0,0.01-0.01,0.03-0.01,0.04C9.69,7.17,9.67,7.26,9.66,7.34c0,0.02-0.01,0.03-0.01,0.04C9.65,7.41,9.65,7.44,9.65,7.47
			c0,0.01,0,0.02,0,0.03c0,0.02-0.01,0.03-0.01,0.05C9.64,7.57,9.63,7.6,9.63,7.63"/>
		<path class="st1" d="M7.28,14.95c0.71,0.06,0.71,0.06,3.41,0.41c0.04,0.01,0.09,0.02,0.13,0.03c0.05,0.01,0.09,0.02,0.13,0.02
			c0.05,0.01,0.09,0.01,0.13,0.02c0.05,0.01,0.09,0.01,0.14,0.02l-0.5-0.02c-0.82-0.06-1.63-0.13-2.46-0.18
			c-0.03-0.01-0.06-0.01-0.09-0.02C8.12,15.22,8.06,15.2,8,15.19c-0.09-0.02-0.17-0.04-0.26-0.07c-0.09-0.03-0.17-0.05-0.26-0.08
			c-0.09-0.03-0.17-0.06-0.25-0.09C7.25,14.95,7.27,14.95,7.28,14.95"/>
		<path class="st1" d="M7.29,1.68C7.25,1.69,7.2,1.71,7.16,1.73C7.2,1.71,7.25,1.69,7.29,1.68"/>
		<path class="st1" d="M6.97,3.32c-0.23-0.35-0.72-0.53-1.6-0.59c0.01-0.01,0.01-0.01,0.02-0.02c0.06-0.05,0.13-0.09,0.19-0.14
			c0.01-0.01,0.02-0.02,0.03-0.02C5.66,2.52,5.7,2.49,5.75,2.46C5.8,2.42,5.86,2.39,5.91,2.36c0.02-0.01,0.03-0.02,0.05-0.03
			c0.09-0.06,0.18-0.11,0.27-0.16c0.01,0,0.01-0.01,0.02-0.01c0.01,0,0.02,0,0.03,0C7.15,2.2,7.6,2.39,7.64,2.71
			C7.58,2.76,7.52,2.81,7.46,2.86C7.4,2.91,7.35,2.96,7.29,3.01c-0.06,0.05-0.11,0.1-0.17,0.15C7.07,3.21,7.02,3.27,6.97,3.32"/>
		<path class="st1" d="M6.6,3.72C6.56,3.78,6.51,3.84,6.46,3.9C6.41,3.96,6.37,4.02,6.32,4.08C6.28,4.14,6.23,4.21,6.19,4.27
			C6.15,4.33,6.1,4.39,6.06,4.46c-0.4-0.55-1.14-0.69-1.75-0.75C4.33,3.7,4.34,3.69,4.35,3.68c0.04-0.05,0.09-0.1,0.13-0.14
			C4.48,3.53,4.49,3.53,4.5,3.52c0.05-0.05,0.1-0.11,0.15-0.16C4.72,3.29,4.8,3.22,4.87,3.15C4.94,3.09,5,3.03,5.07,2.97h0
			c0.01,0,0.02,0,0.03,0C6.2,3.07,6.53,3.43,6.6,3.72"/>
		<path class="st1" d="M6.45,14.6c-0.01-0.01-0.03-0.01-0.04-0.02c-0.05-0.03-0.11-0.06-0.16-0.09C6.31,14.53,6.38,14.56,6.45,14.6"
			/>
		<path class="st1" d="M6.25,2.15c-0.01,0-0.01,0.01-0.02,0.01C6.24,2.16,6.25,2.16,6.25,2.15L6.25,2.15z"/>
		<path class="st1" d="M6.24,2.16C6.14,2.21,6.05,2.27,5.96,2.32C5.98,2.31,6,2.3,6.02,2.29C6.09,2.24,6.16,2.2,6.24,2.16"/>
		<path class="st1" d="M6.07,14.39c0.03,0.02,0.07,0.04,0.1,0.06h0C6.14,14.43,6.11,14.41,6.07,14.39"/>
		<path class="st1" d="M6.18,14.45c-0.03-0.02-0.07-0.04-0.1-0.06c-0.01,0-0.02-0.01-0.03-0.02c-0.03-0.02-0.06-0.03-0.09-0.05
			c0.01,0,0.03,0,0.04,0c0.34,0.04,1.39,0.15,3.32,0.62c0.07,0.03,0.14,0.06,0.21,0.09c0.07,0.03,0.14,0.05,0.21,0.08
			c0.07,0.02,0.14,0.05,0.22,0.07c0.07,0.02,0.14,0.04,0.22,0.07c-1.26-0.19-2.17-0.33-3.28-0.43c-0.08-0.03-0.16-0.07-0.24-0.11
			c-0.07-0.03-0.13-0.06-0.2-0.1c-0.07-0.03-0.13-0.07-0.2-0.11C6.22,14.48,6.2,14.47,6.18,14.45"/>
		<path class="st1" d="M5.95,14.32c0.03,0.02,0.06,0.04,0.09,0.05C6.01,14.35,5.98,14.34,5.95,14.32L5.95,14.32z"/>
		<path class="st1" d="M5.91,2.36C5.86,2.39,5.8,2.42,5.75,2.46C5.76,2.45,5.78,2.44,5.8,2.43C5.84,2.4,5.87,2.38,5.91,2.36"/>
		<path class="st1" d="M5.78,4.93C5.75,5,5.71,5.07,5.68,5.14c-0.03,0.07-0.07,0.14-0.1,0.21C5.54,5.42,5.51,5.49,5.48,5.56
			C5.45,5.63,5.42,5.71,5.4,5.78C4.86,5.14,4.05,4.97,3.48,4.9c0.04-0.08,0.09-0.15,0.13-0.23c0.05-0.08,0.1-0.15,0.15-0.23
			C3.77,4.42,3.78,4.4,3.8,4.38C3.86,4.29,3.92,4.2,3.99,4.12c0.03-0.04,0.05-0.07,0.08-0.11c0.01,0,0.02,0,0.03,0
			C5.29,4.15,5.67,4.65,5.78,4.93"/>
		<path class="st1" d="M5.63,14.11L5.63,14.11c-0.04-0.02-0.07-0.05-0.1-0.07C5.57,14.06,5.6,14.08,5.63,14.11"/>
		<path class="st1" d="M5.39,2.72C5.38,2.72,5.38,2.73,5.37,2.73h0C5.38,2.73,5.38,2.72,5.39,2.72"/>
		<path class="st1" d="M5.42,13.95c-0.07-0.05-0.14-0.11-0.21-0.16c-0.02-0.01-0.03-0.03-0.05-0.04
			C5.24,13.82,5.33,13.88,5.42,13.95"/>
		<path class="st1" d="M4.87,3.15C4.8,3.22,4.72,3.29,4.65,3.36c0.01-0.01,0.02-0.02,0.03-0.03C4.74,3.27,4.81,3.21,4.87,3.15"/>
		<path class="st1" d="M8.83,14.71c-1.29-0.32-2.21-0.49-3.19-0.6c-0.03-0.02-0.07-0.05-0.1-0.07c-0.04-0.03-0.08-0.06-0.12-0.09
			c-0.09-0.07-0.18-0.13-0.26-0.21c-0.05-0.04-0.1-0.08-0.15-0.13c-0.06-0.05-0.12-0.11-0.18-0.16c-0.01,0-0.01-0.01-0.02-0.02
			c0.02,0,0.03,0,0.05,0.01c1.33,0.17,2.57,0.57,3.2,0.8c0.06,0.04,0.13,0.08,0.19,0.12c0.06,0.04,0.13,0.08,0.19,0.12
			c0.07,0.04,0.13,0.08,0.2,0.11C8.69,14.64,8.76,14.67,8.83,14.71"/>
		<path class="st1" d="M4.81,13.44c0.01,0.01,0.01,0.01,0.02,0.02C4.82,13.45,4.81,13.45,4.81,13.44L4.81,13.44z"/>
		<path class="st1" d="M4.07,4.01C4.04,4.05,4.02,4.08,3.99,4.12C4.02,4.08,4.04,4.05,4.07,4.01L4.07,4.01z"/>
		<path class="st1" d="M3.99,4.12C3.92,4.2,3.86,4.29,3.8,4.38c0.04-0.05,0.07-0.11,0.11-0.16C3.94,4.19,3.96,4.15,3.99,4.12"/>
		<path class="st1" d="M3.76,4.44c-0.05,0.08-0.1,0.15-0.15,0.23C3.57,4.75,3.52,4.82,3.48,4.9h0c0.05-0.08,0.09-0.15,0.14-0.23
			C3.66,4.59,3.71,4.52,3.76,4.44"/>
		<path class="st1" d="M3.3,5.24c0.01,0,0.02,0,0.04,0c1.22,0.17,1.7,0.74,1.88,1.07C5.2,6.39,5.18,6.46,5.16,6.54
			C5.14,6.62,5.12,6.7,5.1,6.77C5.08,6.85,5.07,6.93,5.05,7.01C5.04,7.09,5.03,7.17,5.01,7.24c-0.68-0.72-1.53-0.91-2.12-1
			c0.02-0.06,0.04-0.12,0.06-0.17C2.97,6.02,2.98,5.97,3,5.92C3.01,5.9,3.02,5.88,3.03,5.85c0.03-0.1,0.07-0.19,0.11-0.28
			c0.05-0.1,0.09-0.21,0.14-0.31C3.29,5.26,3.29,5.25,3.3,5.24L3.3,5.24z"/>
		<path class="st1" d="M3.28,5.26c-0.05,0.1-0.1,0.2-0.14,0.31c0.01-0.03,0.02-0.06,0.04-0.09C3.22,5.41,3.25,5.33,3.28,5.26"/>
		<path class="st1" d="M3.14,5.57C3.1,5.66,3.06,5.76,3.03,5.85c0.01-0.04,0.03-0.08,0.05-0.12C3.1,5.68,3.12,5.62,3.14,5.57"/>
		<path class="st1" d="M2.98,5.99C2.99,5.97,2.99,5.94,3,5.92c-0.02,0.05-0.03,0.1-0.05,0.15C2.96,6.04,2.97,6.02,2.98,5.99"/>
		<path class="st1" d="M4.95,8.81C4.09,8.05,3.24,7.83,2.6,7.72C2.61,7.65,2.61,7.58,2.62,7.5c0.01-0.04,0.01-0.08,0.01-0.11
			c0.01-0.08,0.02-0.15,0.03-0.22C2.68,7.12,2.69,7.08,2.7,7.03c0-0.02,0.01-0.04,0.01-0.06c0.01-0.03,0.01-0.05,0.02-0.08
			C2.74,6.8,2.76,6.71,2.79,6.63c0.01,0,0.03,0,0.04,0.01c1.26,0.2,1.87,0.83,2.13,1.19c0,0.04-0.01,0.08-0.01,0.12
			c0,0.04-0.01,0.08-0.01,0.13c0,0.04,0,0.08,0,0.13c0,0.04,0,0.08,0,0.13c0,0.04,0,0.08,0,0.12c0,0.04,0,0.08,0,0.12
			c0,0.04,0,0.08,0.01,0.12C4.94,8.73,4.95,8.77,4.95,8.81"/>
		<path class="st1" d="M2.62,8.14c1.32,0.23,2.11,0.95,2.39,1.24c0.01,0.08,0.03,0.16,0.04,0.24C5.07,9.7,5.08,9.78,5.1,9.85
			c0.02,0.08,0.03,0.15,0.05,0.23c0.02,0.08,0.04,0.15,0.06,0.23C4.18,9.58,3.25,9.37,2.64,9.27c-0.01-0.05-0.01-0.1-0.02-0.15
			C2.62,9.07,2.61,9.02,2.61,8.97C2.6,8.91,2.6,8.86,2.59,8.8V8.78c-0.01-0.07-0.01-0.13-0.01-0.2c0-0.01,0-0.02,0-0.02
			c0-0.08,0-0.16,0-0.24V8.28c0-0.04,0-0.09,0-0.13V8.13C2.59,8.14,2.61,8.14,2.62,8.14"/>
		<path class="st1" d="M11.15,12.92c0.05,0.07,0.11,0.14,0.17,0.21c0.05,0.06,0.1,0.12,0.16,0.18c0.01,0.01,0.01,0.02,0.02,0.02
			c-1.17,0.1-1.59,0.4-1.74,0.63c-0.06-0.05-0.11-0.1-0.17-0.15c-0.06-0.05-0.11-0.1-0.17-0.15c-0.05-0.05-0.11-0.1-0.16-0.16
			c-0.05-0.05-0.11-0.11-0.16-0.16c0.05-0.35,0.61-0.76,1.74-0.88c0,0,0.01,0.01,0.01,0.01c0.02,0.04,0.05,0.07,0.07,0.1
			c0.02,0.04,0.05,0.07,0.08,0.11C11.04,12.77,11.1,12.85,11.15,12.92"/>
		<path class="st1" d="M10.84,12.49c0.02,0.03,0.05,0.07,0.07,0.1C10.89,12.55,10.86,12.52,10.84,12.49"/>
		<path class="st1" d="M10.51,11.93c0.03,0.07,0.07,0.14,0.12,0.21c-0.03-0.05-0.06-0.1-0.09-0.15
			C10.53,11.97,10.52,11.95,10.51,11.93"/>
		<path class="st1" d="M9.87,10.34c0.01,0.05,0.03,0.1,0.04,0.15c0.01,0.02,0.01,0.04,0.02,0.07c0.01,0.05,0.03,0.11,0.05,0.16
			c0.01,0.01,0.01,0.03,0.01,0.04c0,0,0,0,0,0.01c-1,0.14-1.7,0.46-2.07,0.94c-0.03-0.07-0.07-0.14-0.1-0.21
			c-0.03-0.07-0.07-0.14-0.1-0.21c-0.03-0.07-0.06-0.14-0.09-0.22c-0.03-0.07-0.06-0.14-0.08-0.22c0.2-0.43,0.88-1,2.16-1.19
			c0.02,0.09,0.03,0.19,0.06,0.28c0.02,0.08,0.03,0.16,0.05,0.23c0,0.02,0.01,0.03,0.01,0.04C9.85,10.26,9.86,10.3,9.87,10.34"/>
		<path class="st1" d="M10.63,12.14c-0.97,0.12-1.61,0.38-1.9,0.8c-0.05-0.06-0.09-0.12-0.14-0.18c-0.05-0.06-0.09-0.12-0.14-0.18
			c-0.04-0.06-0.09-0.12-0.13-0.19c-0.04-0.06-0.08-0.13-0.12-0.19c0.12-0.38,0.69-0.89,1.93-1.05c0.03,0.09,0.07,0.17,0.11,0.26
			c0.04,0.08,0.08,0.17,0.12,0.25c0.04,0.08,0.08,0.17,0.13,0.25c0.01,0.01,0.01,0.02,0.02,0.03c0.01,0.02,0.02,0.04,0.03,0.05
			C10.57,12.03,10.6,12.09,10.63,12.14"/>
		<path class="st1" d="M10.58,14.76c0.74,0.39,1.55,0.66,2.41,0.77l-0.51-0.02c-0.86-0.11-1.67-0.37-2.41-0.77
			c-0.75-0.4-1.43-0.92-2-1.56c-0.57-0.64-1.04-1.38-1.36-2.2c-0.32-0.83-0.5-1.72-0.5-2.66c0-1,0.2-1.94,0.56-2.81
			c0.36-0.86,0.88-1.63,1.51-2.28c0.63-0.64,1.37-1.16,2.2-1.53c0.76-0.34,1.59-0.55,2.45-0.61c0.02,0,0.03,0,0.05,0l0.38-0.02
			c0.07,0,0.15,0,0.21-0.01c-0.91,0.04-1.78,0.26-2.58,0.62c-0.82,0.37-1.56,0.89-2.2,1.54C8.16,3.87,7.64,4.65,7.28,5.51
			C6.92,6.38,6.72,7.32,6.72,8.33c0,0.94,0.18,1.84,0.5,2.67c0.32,0.82,0.79,1.57,1.36,2.21C9.15,13.84,9.83,14.37,10.58,14.76z"/>
		<path class="st1" d="M9.69,14.73c0.74,0.39,1.56,0.65,2.41,0.76l-0.5-0.02c-0.86-0.11-1.67-0.37-2.42-0.76
			c-0.75-0.4-1.43-0.92-2-1.55c-0.57-0.64-1.04-1.38-1.36-2.19c-0.32-0.82-0.5-1.71-0.5-2.64c0-0.99,0.2-1.94,0.56-2.79
			c0.36-0.85,0.88-1.62,1.51-2.27c0.63-0.64,1.38-1.16,2.2-1.53c0.81-0.36,1.69-0.57,2.61-0.62h0.01c0.11,0,0.26-0.01,0.38-0.01
			c0.01,0,0.01,0,0.02,0c-0.89,0.05-1.74,0.26-2.52,0.61c-0.82,0.37-1.57,0.89-2.2,1.53C7.26,3.9,6.74,4.67,6.38,5.52
			c-0.36,0.86-0.56,1.8-0.56,2.8c0,0.94,0.18,1.83,0.5,2.65c0.32,0.82,0.79,1.56,1.36,2.2C8.26,13.81,8.94,14.33,9.69,14.73z"/>
		<path class="st1" d="M4.02,12.57c0.01,0.01,0.01,0.01,0.02,0.02C4.03,12.58,4.02,12.58,4.02,12.57"/>
		<path class="st1" d="M7.62,13.92c-1.45-0.5-2.41-0.66-3.08-0.75h0c-0.06-0.06-0.12-0.13-0.18-0.19c-0.06-0.07-0.11-0.13-0.17-0.2
			c-0.05-0.06-0.1-0.13-0.15-0.19c-0.01-0.01-0.01-0.01-0.02-0.02c-0.05-0.07-0.11-0.14-0.16-0.22c0.01,0,0.03,0,0.05,0.01
			c1.35,0.2,2.49,0.68,3.05,0.95c0.05,0.06,0.11,0.11,0.16,0.16c0.06,0.05,0.11,0.11,0.17,0.15c0.06,0.05,0.11,0.1,0.17,0.15
			C7.51,13.83,7.56,13.88,7.62,13.92"/>
		<path class="st1" d="M6.18,12.36c0.04,0.06,0.09,0.13,0.13,0.19c0.05,0.06,0.09,0.12,0.14,0.18c0.05,0.06,0.1,0.12,0.14,0.18
			c-1.33-0.6-2.32-0.79-2.94-0.88c-0.02-0.03-0.03-0.06-0.05-0.08c-0.03-0.05-0.06-0.1-0.09-0.14c-0.05-0.08-0.09-0.16-0.13-0.24
			c-0.04-0.07-0.07-0.14-0.11-0.21c-0.01-0.01-0.01-0.02-0.01-0.03c0,0,0,0-0.01-0.01c-0.03-0.07-0.06-0.13-0.09-0.2
			c-0.01-0.01-0.01-0.02-0.02-0.04c0.01,0,0.03,0.01,0.04,0.01c1.39,0.22,2.46,0.83,2.86,1.08C6.09,12.23,6.13,12.3,6.18,12.36"/>
		<path class="st1" d="M2.73,9.8C2.72,9.75,2.71,9.71,2.71,9.66c0.01,0,0.03,0,0.04,0.01c1.36,0.23,2.3,0.9,2.64,1.18
			c0.03,0.07,0.06,0.14,0.09,0.22c0.03,0.07,0.06,0.14,0.09,0.21c0.03,0.07,0.07,0.14,0.1,0.21c0.03,0.07,0.07,0.14,0.11,0.21
			C4.59,11.02,3.63,10.81,3,10.72h0c-0.01-0.01-0.01-0.02-0.01-0.03c-0.03-0.07-0.05-0.15-0.08-0.22c-0.03-0.08-0.05-0.16-0.07-0.25
			c0-0.01,0-0.01-0.01-0.02c0,0,0-0.01-0.01-0.02c-0.02-0.08-0.04-0.17-0.06-0.25v0C2.75,9.89,2.74,9.84,2.73,9.8"/>
		<path class="st1" d="M13.78,11.34C13.79,11.34,13.79,11.34,13.78,11.34c0.03,0.04,0.06,0.07,0.09,0.11
			C13.84,11.42,13.81,11.38,13.78,11.34z"/>
		<path class="st1" d="M20.4,11.64C19.72,12.48,18.8,13,17.79,13c-2.09,0-3.79-2.2-3.79-4.91s1.7-4.91,3.79-4.91
			c1.01,0,1.93,0.52,2.61,1.36h2.99c-0.25-0.43-0.54-0.84-0.86-1.2c-0.6-0.67-1.31-1.23-2.12-1.64c-0.82-0.41-1.73-0.67-2.7-0.74
			c-0.42-0.03-0.84-0.01-1.25,0.03c-0.55,0.06-1.08,0.19-1.59,0.38c-0.9,0.33-1.72,0.85-2.42,1.51c-0.71,0.67-1.28,1.49-1.68,2.41
			c-0.4,0.93-0.63,1.96-0.63,3.04c0,1.08,0.22,2.11,0.63,3.04c0.4,0.92,0.98,1.74,1.68,2.41c0.7,0.66,1.52,1.18,2.42,1.51
			c0.51,0.19,1.04,0.32,1.59,0.38c0.41,0.05,0.83,0.06,1.25,0.03c0.97-0.06,1.89-0.32,2.7-0.73c0.81-0.41,1.52-0.97,2.12-1.64
			c0.45-0.5,0.83-1.07,1.12-1.69H20.4z M13.7,5.34c0.02-0.04,0.05-0.07,0.08-0.11c0.01,0.01,0.02,0.02,0.03,0.04
			C13.78,5.3,13.74,5.32,13.7,5.34z"/>
		<polygon class="st1" points="22.84,12.54 46.2,11.73 22.51,11.67 		"/>
		<polygon class="st1" points="22.11,13.4 26.2,13.37 21.98,13.57 22.14,13.28 		"/>
		<polygon class="st1" points="21.84,13.83 23.67,13.83 21.76,13.9 		"/>
		<polygon class="st1" points="22.95,4.03 28.77,4.52 22.89,4.49 		"/>
	</g>
	<polygon class="st1" points="12.97,1.09 12.15,1.11 10.47,1.41 8.08,2.74 6.41,4.9 5.62,6.84 5.59,9.18 5.95,10.94 6.51,12.03 
		7.62,13.39 9.54,14.79 10.69,15.27 11.6,15.47 12.97,15.53 12.26,15.4 10.63,14.95 8.63,13.53 7.98,12.66 7.24,11.78 6.35,8.9 
		6.6,6.63 7.11,5.14 8.27,3.54 10,2.07 10.9,1.6 12.07,1.2 	"/>
</g>
</svg>
